<svg width="14" height="14" viewBox="0 0 14 14" fill="none" xmlns="http://www.w3.org/2000/svg">
<g clip-path="url(#clip0)">
<path d="M4.01992 7.42725H9.75361C10.98 7.42725 11.9779 6.41304 11.9779 5.16641C11.9779 4.03878 11.1614 3.1013 10.0979 2.93262C9.92559 1.28647 8.55122 0 6.88675 0C5.22238 0 3.84807 1.28647 3.67566 2.93262C2.61211 3.10133 1.79565 4.03881 1.79565 5.16644C1.79565 6.41307 2.79346 7.42725 4.01992 7.42725Z" fill="#EC2227"/>
<path d="M11.3256 11.5391H8.9045C8.68165 11.5391 8.50098 11.7227 8.50098 11.9492V13.5898C8.50098 13.8164 8.68165 14 8.9045 14H11.3256C11.5485 14 11.7291 13.8164 11.7291 13.5898V11.9492C11.7291 11.7227 11.5485 11.5391 11.3256 11.5391Z" fill="#EC2227"/>
<path d="M10.5172 10.7188V9.48828C10.5172 9.26177 10.3365 9.07812 10.1136 9.07812H7.28899V8.25781H6.48194V9.07812H3.57662C3.35377 9.07812 3.1731 9.26177 3.1731 9.48828V10.7188H3.98014V9.89844H9.71011V10.7188H10.5172Z" fill="#EC2227"/>
<path d="M4.87006 11.5391H2.44893C2.22608 11.5391 2.04541 11.7227 2.04541 11.9492V13.5898C2.04541 13.8164 2.22608 14 2.44893 14H4.87006C5.09288 14 5.27358 13.8164 5.27358 13.5898V11.9492C5.27358 11.7227 5.09288 11.5391 4.87006 11.5391Z" fill="#EC2227"/>
</g>
<defs>
<clipPath id="clip0">
<rect width="13.7735" height="14" fill="white"/>
</clipPath>
</defs>
</svg>
