<svg width="16" height="16" viewBox="0 0 16 16" fill="none" xmlns="http://www.w3.org/2000/svg">
<path d="M11.5776 4.33266C11.7288 4.31316 11.8813 4.30337 12.0344 4.30337C14.221 4.30337 16 6.2955 16 8.74418C16 11.1012 14.3517 13.0349 12.2783 13.1765C12.4208 12.549 12.7682 11.4173 12.4706 10.3529C11.9794 8.59638 10.7189 7.70224 8.94118 7.2941C7.18164 6.89014 5.72358 7.1709 4.47059 8.47057C3.16981 9.81981 3.21569 12.1568 3.52941 13.1765C1.45633 13.0344 0 11.1009 0 8.74418C0 6.32929 1.73005 4.35841 3.87524 4.30453C4.30765 2.35128 5.87944 0.941162 7.7235 0.941162C8.72577 0.941162 9.68249 1.36096 10.4175 2.12327C10.9951 2.72237 11.3953 3.48993 11.5776 4.33266Z" fill="#EC2227"/>
<path d="M4.98388 11.1151H4.76407C4.48934 11.1151 4.26953 10.8885 4.26953 10.6053C4.26953 10.3786 4.41607 10.1709 4.63588 10.1143C4.74577 10.0765 4.85565 10.0387 4.94727 9.98208C5.13043 9.88768 5.25866 9.77436 5.36854 9.66104C5.4052 9.6233 5.44181 9.58551 5.47847 9.52885C5.60666 9.35892 5.80817 9.24561 6.02798 9.24561H6.15621C6.54087 9.24561 6.85226 9.56664 6.85226 9.96321V14.0233C6.85226 14.4387 6.52257 14.7597 6.13791 14.7597C5.7349 14.7597 5.42351 14.4198 5.42351 14.0233V11.5495C5.42351 11.304 5.222 11.1151 4.98388 11.1151Z" fill="#EC2227"/>
<path d="M9.98603 13.3055C9.47314 13.2489 8.97855 12.7579 8.90528 12.2858C8.75874 11.436 9.3266 10.7184 10.1509 10.6806C10.3524 10.6806 10.5172 10.7184 10.9019 10.8695C11.7445 11.0394 12.0193 9.94416 11.3415 9.52868C10.9569 9.33983 10.5172 9.22656 10.0593 9.22656C8.64885 9.2643 7.45822 10.454 7.40326 11.9081C7.32998 13.5132 8.46565 14.7596 10.0226 14.7596C10.3524 14.7596 10.8286 14.684 11.1217 14.5708C11.891 14.2686 11.7079 13.06 10.8836 13.1544C10.6638 13.1922 10.3524 13.3433 9.98603 13.3055Z" fill="#EC2227"/>
</svg>
