<svg width="16" height="16" viewBox="0 0 16 16" fill="none" xmlns="http://www.w3.org/2000/svg">
<g clip-path="url(#clip0)">
<path d="M13.6569 13.6561C10.5327 16.7803 5.46736 16.7803 2.34317 13.6561C-0.781057 10.5319 -0.781057 5.46661 2.34317 2.34243C5.46736 -0.781754 10.5327 -0.781754 13.6569 2.34243C16.7811 5.46661 16.7811 10.5319 13.6569 13.6561ZM3.65211 2.41161C3.18137 2.76206 2.76266 3.18067 2.41226 3.65141C3.46939 4.43807 4.5268 5.22437 5.58402 6.0109C5.72923 5.81573 5.81642 5.72853 6.0115 5.58346C5.22502 4.52614 4.43854 3.46892 3.65211 2.41161ZM9.62518 6.37412C8.72764 5.47659 7.27236 5.47663 6.37487 6.37412C5.47733 7.27166 5.47733 8.7269 6.37487 9.62444C7.2724 10.522 8.72764 10.522 9.62518 9.62444C10.5227 8.72695 10.5227 7.2717 9.62518 6.37412ZM10.4159 9.98771C10.2707 10.1829 10.1835 10.2701 9.9885 10.4151C10.7749 11.4724 11.5615 12.5296 12.3479 13.587C12.8186 13.2366 13.2373 12.8179 13.5877 12.3472C12.5306 11.5605 11.4732 10.7742 10.4159 9.98771Z" fill="#EC2227"/>
</g>
<defs>
<clipPath id="clip0">
<rect width="16" height="16" fill="white" transform="matrix(1 0 0 -1 0 16)"/>
</clipPath>
</defs>
</svg>
