<svg width="16" height="16" viewBox="0 0 16 16" fill="none" xmlns="http://www.w3.org/2000/svg">
<path d="M15.54 9.698C15.656 9.177 15.716 8.637 15.716 8.083C15.716 3.928 12.3 0.559 8.085 0.559C7.641 0.559 7.205 0.597 6.78 0.669C6.098 0.246 5.291 0 4.426 0C1.981 0 0 1.953 0 4.364C0 5.169 0.222 5.922 0.608 6.571C0.507 7.059 0.453 7.565 0.453 8.083C0.453 12.239 3.87 15.608 8.084 15.608C8.562 15.608 9.029 15.564 9.482 15.482C10.106 15.812 10.818 16 11.575 16C14.019 16 16 14.046 16 11.637C16 10.94 15.834 10.283 15.54 9.698ZM11.999 11.679C11.646 12.172 11.125 12.562 10.448 12.838C9.779 13.113 8.978 13.253 8.064 13.253C6.968 13.253 6.049 13.063 5.331 12.687C4.818 12.414 4.396 12.045 4.075 11.587C3.75 11.127 3.587 10.67 3.587 10.228C3.587 9.953 3.694 9.714 3.905 9.519C4.114 9.324 4.382 9.227 4.702 9.227C4.964 9.227 5.19 9.304 5.374 9.457C5.549 9.604 5.7 9.822 5.821 10.101C5.956 10.407 6.103 10.665 6.258 10.866C6.409 11.063 6.624 11.227 6.899 11.356C7.176 11.484 7.549 11.551 8.007 11.551C8.638 11.551 9.156 11.418 9.544 11.156C9.925 10.901 10.109 10.593 10.109 10.217C10.109 9.921 10.012 9.687 9.815 9.504C9.607 9.312 9.333 9.163 9.001 9.06C8.654 8.954 8.183 8.838 7.601 8.718C6.808 8.551 6.135 8.353 5.601 8.128C5.054 7.898 4.612 7.58 4.29 7.182C3.962 6.777 3.796 6.27 3.796 5.674C3.796 5.106 3.97 4.594 4.314 4.152C4.655 3.713 5.153 3.37 5.796 3.137C6.429 2.906 7.182 2.789 8.035 2.789C8.716 2.789 9.315 2.867 9.816 3.021C10.319 3.175 10.743 3.383 11.076 3.64C11.412 3.9 11.662 4.175 11.818 4.463C11.976 4.753 12.057 5.042 12.057 5.321C12.057 5.59 11.952 5.835 11.744 6.047C11.534 6.262 11.27 6.37 10.96 6.37C10.678 6.37 10.456 6.301 10.303 6.168C10.16 6.043 10.011 5.848 9.847 5.57C9.657 5.214 9.426 4.933 9.162 4.734C8.905 4.541 8.477 4.445 7.887 4.445C7.341 4.445 6.895 4.553 6.565 4.767C6.247 4.972 6.092 5.208 6.092 5.488C6.092 5.659 6.142 5.802 6.245 5.925C6.353 6.057 6.506 6.17 6.7 6.266C6.9 6.365 7.107 6.445 7.314 6.501C7.526 6.559 7.881 6.646 8.37 6.757C8.988 6.887 9.555 7.034 10.057 7.193C10.566 7.352 11.004 7.549 11.364 7.78C11.729 8.015 12.018 8.315 12.224 8.675C12.43 9.038 12.534 9.483 12.534 10.001C12.533 10.62 12.353 11.185 11.999 11.679Z" fill="#EC2227"/>
</svg>
