<svg width="16" height="16" viewBox="0 0 16 16" fill="none" xmlns="http://www.w3.org/2000/svg">
<g clip-path="url(#clip0)">
<path d="M9.88416 0.781541C8.84503 -0.257584 7.15497 -0.257584 6.11584 0.781541L0.46875 6.39742L4.71875 10.6162L6.34291 8.99201C7.25659 8.07832 8.74341 8.07832 9.65713 8.99201L11.2812 10.6162L15.5312 6.39742L9.88416 0.781541Z" fill="#EC2227"/>
<path d="M15.983 7.27148L11.9443 11.2789L15.8593 15.1939C15.947 15.0105 16.0002 14.8078 16.0002 14.5914V7.4483C16.0002 7.38827 15.9903 7.33014 15.983 7.27148Z" fill="#EC2227"/>
<path d="M0.0173438 7.27173C0.00996875 7.33038 0 7.38845 0 7.44848V14.5915C0 14.808 0.0532188 15.0107 0.140938 15.194L4.05591 11.279L0.0173438 7.27173Z" fill="#EC2227"/>
<path d="M8.99418 9.65484C8.46318 9.12384 7.53668 9.12384 7.00568 9.65484L0.803711 15.8568C0.987055 15.9445 1.18971 15.9977 1.40618 15.9977H14.5937C14.8101 15.9977 15.0128 15.9445 15.1961 15.8568L8.99418 9.65484Z" fill="#EC2227"/>
</g>
<defs>
<clipPath id="clip0">
<rect width="16" height="16" fill="white"/>
</clipPath>
</defs>
</svg>
