<svg width="16" height="16" viewBox="0 0 16 16" fill="none" xmlns="http://www.w3.org/2000/svg">
<g clip-path="url(#clip0)">
<path d="M6.7299 7.27835L7.20049 6.49403L6.7299 5.70972H5.75672L5.28613 6.49403L5.75672 7.27835H6.7299Z" fill="#EC2227"/>
<path d="M4.47062 6.02346L4.94121 5.23915L4.47062 4.45483H3.49744L3.02686 5.23915L3.49744 6.02346H4.47062Z" fill="#EC2227"/>
<path d="M15.0588 0.501953H0.941177C0.422275 0.501953 0 0.924228 0 1.44313V11.5451C0 12.064 0.422275 12.4863 0.941177 12.4863H15.0588C15.5777 12.4863 16 12.064 16 11.5451V1.44313C16 0.924228 15.5777 0.501953 15.0588 0.501953ZM2.07498 5.4814C1.98557 5.33238 1.98557 5.14603 2.07498 4.99701L2.82792 3.74211C2.91294 3.60031 3.06604 3.51372 3.23137 3.51372H4.26667V2.98038C4.26667 2.72062 4.47749 2.5098 4.73726 2.5098H10.0078C10.2676 2.5098 10.4784 2.72062 10.4784 2.98038C10.4784 3.24015 10.2676 3.45097 10.0078 3.45097H5.20784V3.85411L5.75655 4.76862H6.99608C7.16141 4.76862 7.31451 4.85521 7.39953 4.99701L8.01537 6.02352H10.0078C10.2676 6.02352 10.4784 6.23434 10.4784 6.49411C10.4784 6.75387 10.2676 6.9647 10.0078 6.9647H8.01537L7.39953 7.99121C7.31451 8.13301 7.16141 8.2196 6.99608 8.2196H5.75655L5.20784 9.13411V9.53725H10.0078C10.2676 9.53725 10.4784 9.74807 10.4784 10.0078C10.4784 10.2676 10.2676 10.4784 10.0078 10.4784H4.73726C4.47749 10.4784 4.26667 10.2676 4.26667 10.0078V9.4745H3.23137C3.06604 9.4745 2.91294 9.38791 2.82792 9.24611L2.07498 7.99121C1.98557 7.84219 1.98557 7.65584 2.07498 7.50682L2.68267 6.49411L2.07498 5.4814ZM12.0157 9.53725H13.5216C13.7813 9.53725 13.9922 9.74807 13.9922 10.0078C13.9922 10.2676 13.7813 10.4784 13.5216 10.4784H12.0157C11.7559 10.4784 11.5451 10.2676 11.5451 10.0078C11.5451 9.74807 11.7559 9.53725 12.0157 9.53725ZM11.5451 6.49411C11.5451 6.23434 11.7559 6.02352 12.0157 6.02352H13.5216C13.7813 6.02352 13.9922 6.23434 13.9922 6.49411C13.9922 6.75387 13.7813 6.9647 13.5216 6.9647H12.0157C11.7559 6.9647 11.5451 6.75387 11.5451 6.49411ZM13.5216 3.45097H12.0157C11.7559 3.45097 11.5451 3.24015 11.5451 2.98038C11.5451 2.72062 11.7559 2.5098 12.0157 2.5098H13.5216C13.7813 2.5098 13.9922 2.72062 13.9922 2.98038C13.9922 3.24015 13.7813 3.45097 13.5216 3.45097Z" fill="#EC2227"/>
<path d="M4.94121 7.74891L4.47062 6.9646H3.49744L3.02686 7.74891L3.49744 8.53323H4.47062L4.94121 7.74891Z" fill="#EC2227"/>
<path d="M14.7769 14.5568H11.7338V13.5215H4.26714V14.5568H1.22401C0.964116 14.5568 0.753418 14.7675 0.753418 15.0274C0.753418 15.2873 0.964116 15.498 1.22401 15.498H14.7769C15.0368 15.498 15.2475 15.2873 15.2475 15.0274C15.2475 14.7675 15.0368 14.5568 14.7769 14.5568Z" fill="#EC2227"/>
</g>
<defs>
<clipPath id="clip0">
<rect width="16" height="16" fill="white"/>
</clipPath>
</defs>
</svg>
