<svg width="16" height="16" viewBox="0 0 16 16" fill="none" xmlns="http://www.w3.org/2000/svg">
<g clip-path="url(#clip0)">
<path d="M8.46875 7.63071V12.5626L12.3701 10.6908L12.37 5.75903L8.46875 7.63071Z" fill="#EC2227"/>
<path d="M7.99982 3.21265L4.24463 5.01428L7.99982 6.81589L11.755 5.01428L7.99982 3.21265Z" fill="#EC2227"/>
<path d="M15.3123 3.75226C15.3123 3.57194 15.2088 3.40761 15.0462 3.32961L8.20246 0.0461051C8.07426 -0.0153684 7.92509 -0.0153684 7.7969 0.0461051L0.953094 3.32961C0.79052 3.40761 0.687105 3.57197 0.687105 3.75226L0.687012 12.2477C0.687012 12.428 0.790457 12.5924 0.953032 12.6704L7.79696 15.9539C7.86106 15.9846 7.93041 16 7.99972 16C8.06907 16 8.13842 15.9846 8.20249 15.9539L15.0464 12.6704C15.209 12.5924 15.3124 12.428 15.3124 12.2477L15.3123 3.75226ZM13.0414 11.4085L8.20246 13.7301C8.13836 13.7608 8.06901 13.7762 7.99969 13.7762C7.93035 13.7762 7.861 13.7609 7.79693 13.7301L2.958 11.4085C2.79542 11.3305 2.69198 11.1662 2.69198 10.9859L2.69204 5.01414C2.69204 4.83381 2.79549 4.66949 2.95803 4.59145L7.7969 2.2699C7.92509 2.20843 8.07426 2.20843 8.20246 2.2699L13.0413 4.59145C13.2039 4.66946 13.3073 4.83381 13.3073 5.01414L13.3074 10.9859C13.3074 11.1662 13.204 11.3305 13.0414 11.4085Z" fill="#EC2227"/>
<path d="M3.63037 10.6908L7.53173 12.5626V7.63071L3.63043 5.75903L3.63037 10.6908Z" fill="#EC2227"/>
</g>
<defs>
<clipPath id="clip0">
<rect width="16" height="16" fill="white"/>
</clipPath>
</defs>
</svg>
