<svg width="16" height="16" viewBox="0 0 16 16" fill="none" xmlns="http://www.w3.org/2000/svg">
<g clip-path="url(#clip0)">
<path d="M12.0344 4.84132C11.8813 4.84132 11.7288 4.85003 11.5775 4.86748C11.3953 4.11492 10.9951 3.42945 10.4174 2.89446C9.68247 2.21375 8.72575 1.83887 7.72348 1.83887C5.87943 1.83887 4.30764 3.0981 3.87523 4.84237C1.73004 4.89048 0 6.65048 0 8.80694C0 10.9937 1.77897 12.7727 3.96565 12.7727H5.10667C5.32494 13.0293 5.57651 13.2586 5.85759 13.4547C6.51962 13.9167 7.29666 14.1609 8.10465 14.1609C8.96259 14.1609 9.77821 13.8894 10.4633 13.3758C10.6985 13.1996 10.9125 12.9963 11.1022 12.7727H12.0344C14.221 12.7727 16 10.9937 16 8.8069C16 6.62034 14.221 4.84132 12.0344 4.84132ZM11.1541 11.1672C10.9577 11.8051 10.5539 12.3781 10.017 12.7804C9.4619 13.1965 8.80054 13.4168 8.10462 13.4168C6.75165 13.4168 5.59281 12.57 5.12966 11.3788L4.46842 11.4923C4.45019 11.4953 4.43214 11.4969 4.41421 11.4969C4.30511 11.4969 4.20196 11.4412 4.14254 11.3468C4.07322 11.2369 4.07698 11.0963 4.15207 10.9902L5.1166 9.62681C5.16579 9.55734 5.24051 9.51046 5.32453 9.49598C5.40825 9.48147 5.49472 9.50093 5.56419 9.55027L6.92747 10.5148C7.03347 10.5897 7.08389 10.7215 7.05502 10.8478C7.02633 10.9748 6.92412 11.0717 6.79619 11.0934L6.20572 11.1947C6.55921 11.8847 7.27742 12.3586 8.10465 12.3586C9.04687 12.3586 9.86584 11.7544 10.1429 10.8553C10.229 10.5761 10.5251 10.4196 10.8044 10.5056C11.0836 10.5918 11.2402 10.8879 11.1541 11.1672ZM11.8481 8.74075L10.8835 10.1042C10.8341 10.1736 10.7594 10.2205 10.6754 10.235C10.6576 10.2381 10.6393 10.2396 10.6212 10.2396C10.5554 10.2396 10.4905 10.2195 10.4358 10.1807L9.07273 9.21621C8.96664 9.14119 8.91626 9.00951 8.9448 8.88285C8.9736 8.75652 9.07582 8.65959 9.20396 8.6376L9.7941 8.53632C9.44073 7.84623 8.72255 7.37245 7.89513 7.37245C6.95325 7.37245 6.13413 7.97632 5.85684 8.8757C5.77074 9.15489 5.47485 9.31143 5.1956 9.22532C4.91638 9.13922 4.75977 8.84307 4.8458 8.56389C5.04237 7.9259 5.44635 7.35321 5.98284 6.95068C6.53829 6.53446 7.19954 6.31422 7.8952 6.31422C9.24835 6.31422 10.407 7.16099 10.8702 8.35221L11.5316 8.23868C11.6596 8.21706 11.7882 8.27429 11.8574 8.38417C11.9267 8.49405 11.923 8.6347 11.8481 8.74075Z" fill="#EC2227"/>
</g>
<defs>
<clipPath id="clip0">
<rect width="16" height="16" fill="white"/>
</clipPath>
</defs>
</svg>
