<svg width="16" height="16" viewBox="0 0 16 16" fill="none" xmlns="http://www.w3.org/2000/svg">
<path d="M10.8906 6.375H8.39062V3.5C8.39062 2.72459 7.75978 2.09375 6.98438 2.09375C6.20897 2.09375 5.57812 2.72459 5.57812 3.5V8.28125H5.42188C4.64647 8.28125 4.01562 8.91206 4.01562 9.6875V12.1875C4.01562 12.9629 4.64647 13.5938 5.42188 13.5938H12.2969V7.78125C12.2969 7.00581 11.666 6.375 10.8906 6.375Z" fill="#EC2227"/>
<path d="M5.26562 15.5312C5.26562 15.7901 5.4755 16 5.73438 16H11.8281C12.087 16 12.2969 15.7901 12.2969 15.5312V14.5312H5.26562V15.5312Z" fill="#EC2227"/>
<path d="M4.64062 3.5C4.64062 2.20766 5.69203 1.15625 6.98438 1.15625C8.27672 1.15625 9.32812 2.20766 9.32812 3.5V5.4375H9.45556C9.95972 4.86041 10.2656 4.10594 10.2656 3.28125C10.2656 1.47197 8.79366 0 6.98438 0C5.17509 0 3.70312 1.47197 3.70312 3.28125C3.70312 4.17322 4.06106 4.98309 4.64062 5.57512V3.5Z" fill="#EC2227"/>
</svg>
