<svg width="16" height="16" viewBox="0 0 16 16" fill="none" xmlns="http://www.w3.org/2000/svg">
<path d="M6.03929 16H9.96626L10.8965 13.6562H5.10498L6.03929 16Z" fill="#EC2227"/>
<path d="M15.5313 13.6562H11.8824L10.9452 15.999C10.9451 15.9994 10.9449 15.9997 10.9448 16H15.5313C15.7901 16 16 15.7901 16 15.5312V14.125C16 13.8661 15.7901 13.6562 15.5313 13.6562Z" fill="#EC2227"/>
<path d="M4.11763 13.6562H0.46875C0.209875 13.6562 0 13.8661 0 14.125V15.5312C0 15.7901 0.209875 16 0.46875 16H5.05519C5.05509 15.9997 5.05494 15.9993 5.05481 15.999L4.11763 13.6562Z" fill="#EC2227"/>
<path d="M15.0625 3.3125C15.0625 3.05362 14.8526 2.84375 14.5938 2.84375H13.6562V9.875C13.6562 10.6504 13.0254 11.2812 12.25 11.2812H3.75C2.97459 11.2812 2.34375 10.6504 2.34375 9.875V2.84375H1.40625C1.14737 2.84375 0.9375 3.05362 0.9375 3.3125V12.7188H15.0625V3.3125Z" fill="#EC2227"/>
<path d="M12.7188 0.46875C12.7188 0.209875 12.5089 0 12.25 0H3.75C3.49112 0 3.28125 0.209875 3.28125 0.46875V1.875H12.7188V0.46875Z" fill="#EC2227"/>
<path d="M8.46875 4.6875H9.90625V6.625H8.46875V4.6875Z" fill="#EC2227"/>
<path d="M6.09375 4.6875H7.53125V6.625H6.09375V4.6875Z" fill="#EC2227"/>
<path d="M3.75 10.3438H12.25C12.5089 10.3438 12.7188 10.1339 12.7188 9.875V2.8125H3.28125V9.875C3.28125 10.1339 3.49112 10.3438 3.75 10.3438ZM5.15625 4.21875C5.15625 3.95987 5.36613 3.75 5.625 3.75H10.375C10.6339 3.75 10.8438 3.95987 10.8438 4.21875V7.09375C10.8438 7.35262 10.6339 7.5625 10.375 7.5625H5.625C5.36613 7.5625 5.15625 7.35262 5.15625 7.09375V4.21875ZM5.625 8.5H10.375C10.6339 8.5 10.8438 8.70988 10.8438 8.96875C10.8438 9.22762 10.6339 9.4375 10.375 9.4375H5.625C5.36613 9.4375 5.15625 9.22762 5.15625 8.96875C5.15625 8.70988 5.36613 8.5 5.625 8.5Z" fill="#EC2227"/>
</svg>
