<svg width="16" height="16" viewBox="0 0 16 16" fill="none" xmlns="http://www.w3.org/2000/svg">
<path d="M15.0588 2.76298H13.9922C13.4733 2.76298 13.051 3.18526 13.051 3.70416V4.77082C13.051 5.24628 13.4093 5.712 14.0549 5.712V7.53161H11.7333V6.9669C11.7333 6.448 11.3111 6.02573 10.7922 6.02573H8.47059V3.89804C9.33396 3.68628 9.97647 2.90635 9.97647 1.97867C9.97647 0.888785 9.08988 0.00219727 8 0.00219727C7.07231 0.00219727 6.29239 0.644707 6.08063 1.50808H1.47451C1.21475 1.50808 1.00392 1.7189 1.00392 1.97867V6.52769H0.941177C0.422275 6.52769 0 6.94996 0 7.46886V8.53553C0 9.01098 0.358306 9.47671 1.00392 9.47671V14.0257C1.00392 14.2856 1.21462 14.4963 1.47451 14.4963H4.36248C5.1995 16.4926 10.7954 16.5047 11.6376 14.4963H14.5255C14.7854 14.4963 14.9961 14.2856 14.9961 14.0257C14.9961 13.3401 14.9961 6.86965 14.9961 5.712H15.0588C15.5777 5.712 16 5.28973 16 4.77082V3.70416C16 3.18526 15.5777 2.76298 15.0588 2.76298ZM1.9451 2.44926H6.08063C6.25537 3.16173 6.81694 3.7233 7.52941 3.89804V6.02573H5.20784C4.68894 6.02573 4.26667 6.448 4.26667 6.9669V7.53161H2.94902C2.94902 6.88144 2.4997 6.52769 1.9451 6.52769V2.44926ZM4.36248 13.5551H1.9451V9.47671C2.59526 9.47671 2.94902 9.02739 2.94902 8.47279H4.26667V9.03749C4.26667 9.55639 4.68894 9.97867 5.20784 9.97867H7.52941V12.0643C6.41158 12.1341 4.79131 12.5324 4.36248 13.5551ZM8.47059 12.0643V9.97867H10.7922C11.3111 9.97867 11.7333 9.55639 11.7333 9.03749V8.47279H14.0549V13.5551H11.6376C11.2092 12.5336 9.59153 12.1342 8.47059 12.0643Z" fill="#EC2227"/>
</svg>
