<svg width="16" height="16" viewBox="0 0 16 16" fill="none" xmlns="http://www.w3.org/2000/svg">
<path d="M7.0625 13.1875H8.9375C9.19637 13.1875 9.40625 13.3974 9.40625 13.6562V15.5312C9.40625 15.7901 9.19637 16 8.9375 16H7.0625C6.80362 16 6.59375 15.7901 6.59375 15.5312V13.6562C6.59375 13.3974 6.80362 13.1875 7.0625 13.1875Z" fill="#EC2227"/>
<path d="M8.9375 2.8125H7.0625C6.80362 2.8125 6.59375 2.60263 6.59375 2.34375V0.46875C6.59375 0.209875 6.80362 0 7.0625 0H8.9375C9.19637 0 9.40625 0.209875 9.40625 0.46875V2.34375C9.40625 2.60263 9.19637 2.8125 8.9375 2.8125Z" fill="#EC2227"/>
<path d="M2.34375 16H0.46875C0.209875 16 0 15.7901 0 15.5312V13.6562C0 13.3974 0.209875 13.1875 0.46875 13.1875H2.34375C2.60262 13.1875 2.8125 13.3974 2.8125 13.6562V15.5312C2.8125 15.7901 2.60262 16 2.34375 16Z" fill="#EC2227"/>
<path d="M2.34375 2.8125H0.46875C0.209875 2.8125 0 2.60263 0 2.34375V0.46875C0 0.209875 0.209875 0 0.46875 0H2.34375C2.60262 0 2.8125 0.209875 2.8125 0.46875V2.34375C2.8125 2.60263 2.60262 2.8125 2.34375 2.8125Z" fill="#EC2227"/>
<path d="M15.5312 16H13.6562C13.3974 16 13.1875 15.7901 13.1875 15.5312V13.6562C13.1875 13.3974 13.3974 13.1875 13.6562 13.1875H15.5312C15.7901 13.1875 16 13.3974 16 13.6562V15.5312C16 15.7901 15.7901 16 15.5312 16Z" fill="#EC2227"/>
<path d="M15.5312 2.8125H13.6562C13.3974 2.8125 13.1875 2.60263 13.1875 2.34375V0.46875C13.1875 0.209875 13.3974 0 13.6562 0H15.5312C15.7901 0 16 0.209875 16 0.46875V2.34375C16 2.60263 15.7901 2.8125 15.5312 2.8125Z" fill="#EC2227"/>
<path d="M2.34375 9.40625H0.46875C0.209875 9.40625 0 9.19638 0 8.9375V7.0625C0 6.80363 0.209875 6.59375 0.46875 6.59375H2.34375C2.60262 6.59375 2.8125 6.80363 2.8125 7.0625V8.9375C2.8125 9.19638 2.60262 9.40625 2.34375 9.40625Z" fill="#EC2227"/>
<path d="M15.5312 9.40625H13.6562C13.3974 9.40625 13.1875 9.19638 13.1875 8.9375V7.0625C13.1875 6.80363 13.3974 6.59375 13.6562 6.59375H15.5312C15.7901 6.59375 16 6.80363 16 7.0625V8.9375C16 9.19638 15.7901 9.40625 15.5312 9.40625Z" fill="#EC2227"/>
<path d="M3.75 15.0625H5.65625V14.125H3.75V15.0625Z" fill="#EC2227"/>
<path d="M10.3438 15.0625H12.25V14.125H10.3438V15.0625Z" fill="#EC2227"/>
<path d="M3.75 1.875H5.65625V0.9375H3.75V1.875Z" fill="#EC2227"/>
<path d="M10.3438 1.875H12.25V0.9375H10.3438V1.875Z" fill="#EC2227"/>
<path d="M14.125 12.25H15.0625V10.3438H14.125V12.25Z" fill="#EC2227"/>
<path d="M0.9375 12.25H1.875V10.3438H0.9375V12.25Z" fill="#EC2227"/>
<path d="M14.125 5.65625H15.0625V3.75H14.125V5.65625Z" fill="#EC2227"/>
<path d="M0.9375 5.65625H1.875V3.75H0.9375V5.65625Z" fill="#EC2227"/>
<path d="M10.8125 5.65625V10.3438C10.8125 10.6026 10.6026 10.8125 10.3438 10.8125H5.65625C5.39737 10.8125 5.1875 10.6026 5.1875 10.3438V5.65625C5.1875 5.39738 5.39737 5.1875 5.65625 5.1875H10.3438C10.6026 5.1875 10.8125 5.39738 10.8125 5.65625ZM8 7.53125C7.74113 7.53125 7.53125 7.74113 7.53125 8C7.53125 8.25887 7.74113 8.46875 8 8.46875C8.25887 8.46875 8.46875 8.25887 8.46875 8C8.46875 7.74113 8.25887 7.53125 8 7.53125Z" fill="#EC2227"/>
</svg>
