<svg width="16" height="16" viewBox="0 0 16 16" fill="none" xmlns="http://www.w3.org/2000/svg">
<path d="M0.03125 14.625V15C0.03125 15.2589 0.241125 15.4688 0.5 15.4688H3.09375V14.1562H0.5C0.241125 14.1562 0.03125 14.3661 0.03125 14.625Z" fill="#EC2227"/>
<path d="M15.5 14.1562H12.9062V15.4688H15.5C15.7589 15.4688 15.9688 15.2589 15.9688 15V14.625C15.9688 14.3661 15.7589 14.1562 15.5 14.1562Z" fill="#EC2227"/>
<path d="M1.78125 4.96875H14.2188V5.90625H1.78125V4.96875Z" fill="#EC2227"/>
<path d="M11.5 13.6562H4.5C4.24112 13.6562 4.03125 13.8661 4.03125 14.125V15.5312C4.03125 15.7901 4.24112 16 4.5 16H11.5C11.7589 16 11.9688 15.7901 11.9688 15.5312V14.125C11.9688 13.8661 11.7589 13.6562 11.5 13.6562Z" fill="#EC2227"/>
<path d="M6.53125 11.7812H9.46875V12.7188H6.53125V11.7812Z" fill="#EC2227"/>
<path d="M1.5 4.03125H14.5C14.7589 4.03125 14.9688 3.82137 14.9688 3.5625V0.46875C14.9688 0.209875 14.7589 0 14.5 0H1.5C1.24112 0 1.03125 0.209875 1.03125 0.46875V3.5625C1.03125 3.82137 1.24112 4.03125 1.5 4.03125ZM9.75 1.5625H12.5C12.7589 1.5625 12.9688 1.77237 12.9688 2.03125C12.9688 2.29012 12.7589 2.5 12.5 2.5H9.75C9.49113 2.5 9.28125 2.29012 9.28125 2.03125C9.28125 1.77237 9.49113 1.5625 9.75 1.5625ZM7.75 1.57588C8.00887 1.57588 8.21875 1.78575 8.21875 2.04463C8.21875 2.3035 8.00887 2.51338 7.75 2.51338C7.49113 2.51338 7.28125 2.3035 7.28125 2.04463C7.28125 1.78575 7.49113 1.57588 7.75 1.57588ZM3.5 1.57588C3.75887 1.57588 3.96875 1.78575 3.96875 2.04463C3.96875 2.3035 3.75887 2.51338 3.5 2.51338C3.24113 2.51338 3.03125 2.3035 3.03125 2.04463C3.03125 1.78575 3.24113 1.57588 3.5 1.57588Z" fill="#EC2227"/>
<path d="M1.5 10.8438H14.5C14.7589 10.8438 14.9688 10.6339 14.9688 10.375V7.3125C14.9688 7.05362 14.7589 6.84375 14.5 6.84375H1.5C1.24112 6.84375 1.03125 7.05362 1.03125 7.3125V10.375C1.03125 10.6339 1.24112 10.8438 1.5 10.8438ZM9.75 8.375H12.5C12.7589 8.375 12.9688 8.58487 12.9688 8.84375C12.9688 9.10262 12.7589 9.3125 12.5 9.3125H9.75C9.49113 9.3125 9.28125 9.10262 9.28125 8.84375C9.28125 8.58487 9.49113 8.375 9.75 8.375ZM7.75 8.375C8.00887 8.375 8.21875 8.58487 8.21875 8.84375C8.21875 9.10262 8.00887 9.3125 7.75 9.3125C7.49113 9.3125 7.28125 9.10262 7.28125 8.84375C7.28125 8.58487 7.49113 8.375 7.75 8.375ZM3.5 8.375C3.75887 8.375 3.96875 8.58487 3.96875 8.84375C3.96875 9.10262 3.75887 9.3125 3.5 9.3125C3.24113 9.3125 3.03125 9.10262 3.03125 8.84375C3.03125 8.58487 3.24113 8.375 3.5 8.375Z" fill="#EC2227"/>
</svg>
