<svg width="16" height="16" viewBox="0 0 16 16" fill="none" xmlns="http://www.w3.org/2000/svg">
<g clip-path="url(#clip0)">
<path d="M10.9396 5.69456H14.1467C14.0771 4.77408 13.8042 3.90963 13.3734 3.14551C12.8395 3.34727 11.9272 3.65133 10.7852 3.87132C10.8666 4.4553 10.9187 5.06745 10.9396 5.69456Z" fill="#EC2227"/>
<path d="M10.626 2.94394C11.5556 2.76249 12.3251 2.52288 12.8334 2.34227C12.0337 1.33262 10.9249 0.578531 9.65137 0.223877C9.83926 0.529777 10.0226 0.911309 10.1948 1.3855C10.3665 1.85848 10.5109 2.3828 10.626 2.94394Z" fill="#EC2227"/>
<path d="M8.00001 3.20817C8.59228 3.20817 9.16404 3.16454 9.70074 3.09466C9.29137 1.14431 8.55943 0 8.00001 0C7.44059 0 6.70866 1.14431 6.29932 3.09466C6.83598 3.16457 7.40775 3.20817 8.00001 3.20817Z" fill="#EC2227"/>
<path d="M5.21403 3.87132C4.072 3.65133 3.15971 3.34727 2.62579 3.14551C2.19497 3.90963 1.92208 4.77408 1.85254 5.69456H5.05961C5.08046 5.06745 5.13262 4.4553 5.21403 3.87132Z" fill="#EC2227"/>
<path d="M7.99902 4.14584C7.34731 4.14584 6.72191 4.09797 6.13811 4.02124C6.06664 4.53813 6.01754 5.09745 5.99707 5.69453H10.001C9.98056 5.09745 9.93143 4.53809 9.85996 4.02124C9.27613 4.098 8.65073 4.14584 7.99902 4.14584Z" fill="#EC2227"/>
<path d="M5.80366 1.3855C5.9758 0.911308 6.15919 0.529808 6.34708 0.223877C5.07351 0.578531 3.96479 1.33262 3.16504 2.34227C3.67333 2.52288 4.4428 2.76249 5.37247 2.94394C5.4876 2.38284 5.63196 1.85851 5.80366 1.3855Z" fill="#EC2227"/>
<path d="M4.24969 11.0525V9.64575C3.81835 9.76345 3.45098 9.88324 3.16602 9.9845C3.48198 10.3833 3.84619 10.7422 4.24969 11.0525Z" fill="#EC2227"/>
<path d="M11.749 11.0524C12.1525 10.7422 12.5168 10.3833 12.8327 9.9845C12.5478 9.88324 12.1804 9.76345 11.749 9.64575V11.0524Z" fill="#EC2227"/>
<path d="M6.03041 7.56184H9.96901C9.9902 7.26322 10.0042 6.95336 10.0097 6.63208H5.98975C5.99518 6.95336 6.00925 7.26322 6.03041 7.56184Z" fill="#EC2227"/>
<path d="M10.8994 7.67657C11.3087 7.85337 11.6177 8.21911 11.7163 8.66327C12.424 8.84298 12.9941 9.03787 13.3733 9.18116C13.8042 8.41704 14.0771 7.55256 14.1466 6.63208H10.9473C10.9414 6.98583 10.9251 7.33457 10.8994 7.67657Z" fill="#EC2227"/>
<path d="M1.85254 6.63208C1.92208 7.55256 2.19497 8.41704 2.62579 9.18116C3.00501 9.03787 3.57515 8.84298 4.2828 8.66327C4.38141 8.21911 4.69043 7.85333 5.09972 7.67657C5.07406 7.33461 5.05771 6.98583 5.05181 6.63208H1.85254Z" fill="#EC2227"/>
<path d="M10.3432 8.49927H5.65531C5.39642 8.49927 5.18652 8.70916 5.18652 8.96806V15.5311C5.18652 15.79 5.39642 15.9999 5.65531 15.9999H10.3432C10.6021 15.9999 10.812 15.79 10.812 15.5311V8.96806C10.812 8.70916 10.6021 8.49927 10.3432 8.49927ZM7.99925 14.5935C7.74036 14.5935 7.53047 14.3836 7.53047 14.1247C7.53047 13.8658 7.74036 13.656 7.99925 13.656C8.25815 13.656 8.46804 13.8658 8.46804 14.1247C8.46804 14.3836 8.25815 14.5935 7.99925 14.5935Z" fill="#EC2227"/>
</g>
<defs>
<clipPath id="clip0">
<rect width="16" height="16" fill="white"/>
</clipPath>
</defs>
</svg>
