<svg width="16" height="16" viewBox="0 0 16 16" fill="none" xmlns="http://www.w3.org/2000/svg">
<path d="M13.5 4.53125C13.4405 4.53125 13.3812 4.53338 13.3221 4.53759C13.1439 3.96956 12.8092 3.45709 12.3526 3.06291C11.7389 2.533 10.9442 2.25341 10.1312 2.28347C9.33434 0.88625 7.84469 0 6.25 0C4.24681 0 2.47422 1.37678 1.94209 3.30822C0.789187 3.82072 0.03125 4.972 0.03125 6.25C0.03125 7.49606 0.742969 8.57894 1.78125 9.11362V7.9375C1.78125 7.16209 2.41209 6.53125 3.1875 6.53125H12.8125C13.5879 6.53125 14.2188 7.16209 14.2188 7.9375V9.36153C15.2305 9.053 15.9688 8.11134 15.9688 7C15.9688 5.63872 14.8612 4.53125 13.5 4.53125Z" fill="#EC2227"/>
<path d="M12.8125 7.46875H3.1875C2.92862 7.46875 2.71875 7.67862 2.71875 7.9375V11.2483H13.2812V7.9375C13.2812 7.67862 13.0713 7.46875 12.8125 7.46875ZM6.73797 9.875H4.25C3.99112 9.875 3.78125 9.66512 3.78125 9.40625C3.78125 9.14737 3.99112 8.9375 4.25 8.9375H6.73797C6.99681 8.9375 7.20672 9.14737 7.20672 9.40625C7.20672 9.66512 6.99681 9.875 6.73797 9.875ZM9.75 9.8705C9.49113 9.8705 9.28125 9.66062 9.28125 9.40175C9.28125 9.14287 9.49113 8.933 9.75 8.933C10.0088 8.933 10.2188 9.14287 10.2188 9.40175C10.2188 9.66062 10.0088 9.8705 9.75 9.8705ZM11.75 9.8705C11.4911 9.8705 11.2812 9.66062 11.2812 9.40175C11.2812 9.14287 11.4911 8.933 11.75 8.933C12.0088 8.933 12.2188 9.14287 12.2188 9.40175C12.2188 9.66062 12.0088 9.8705 11.75 9.8705Z" fill="#EC2227"/>
<path d="M2.71875 15.5313C2.71875 15.7902 2.92862 16 3.1875 16H12.8125C13.0713 16 13.2812 15.7902 13.2812 15.5313V12.1858H2.71875V15.5313ZM11.75 13.5C12.0088 13.5 12.2188 13.7099 12.2188 13.9688C12.2188 14.2277 12.0088 14.4375 11.75 14.4375C11.4911 14.4375 11.2812 14.2277 11.2812 13.9688C11.2812 13.7099 11.4911 13.5 11.75 13.5ZM9.75 13.5C10.0088 13.5 10.2188 13.7099 10.2188 13.9688C10.2188 14.2277 10.0088 14.4375 9.75 14.4375C9.49113 14.4375 9.28125 14.2277 9.28125 13.9688C9.28125 13.7099 9.49113 13.5 9.75 13.5ZM4.25 13.5H6.73797C6.99681 13.5 7.20672 13.7099 7.20672 13.9688C7.20672 14.2277 6.99681 14.4375 6.73797 14.4375H4.25C3.99112 14.4375 3.78125 14.2277 3.78125 13.9688C3.78125 13.7099 3.99112 13.5 4.25 13.5Z" fill="#EC2227"/>
</svg>
