<svg width="16" height="16" viewBox="0 0 16 16" fill="none" xmlns="http://www.w3.org/2000/svg">
<path d="M15.5312 1.4375H0.46875C0.209875 1.4375 0 1.64737 0 1.90625V5.65625C0 5.91512 0.209875 6.125 0.46875 6.125H15.5312C15.7901 6.125 16 5.91512 16 5.65625V1.90625C16 1.64737 15.7901 1.4375 15.5312 1.4375ZM4.25 4.25C3.99113 4.25 3.78125 4.04012 3.78125 3.78125C3.78125 3.52238 3.99113 3.3125 4.25 3.3125C4.50887 3.3125 4.71875 3.52238 4.71875 3.78125C4.71875 4.04012 4.50887 4.25 4.25 4.25ZM6.125 4.25C5.86613 4.25 5.65625 4.04012 5.65625 3.78125C5.65625 3.52238 5.86613 3.3125 6.125 3.3125C6.38387 3.3125 6.59375 3.52238 6.59375 3.78125C6.59375 4.04012 6.38387 4.25 6.125 4.25ZM8 4.25C7.74113 4.25 7.53125 4.04012 7.53125 3.78125C7.53125 3.52238 7.74113 3.3125 8 3.3125C8.25887 3.3125 8.46875 3.52238 8.46875 3.78125C8.46875 4.04012 8.25887 4.25 8 4.25ZM9.875 4.25C9.61613 4.25 9.40625 4.04012 9.40625 3.78125C9.40625 3.52238 9.61613 3.3125 9.875 3.3125C10.1339 3.3125 10.3438 3.52238 10.3438 3.78125C10.3438 4.04012 10.1339 4.25 9.875 4.25ZM11.75 4.25C11.4911 4.25 11.2812 4.04012 11.2812 3.78125C11.2812 3.52238 11.4911 3.3125 11.75 3.3125C12.0089 3.3125 12.2188 3.52238 12.2188 3.78125C12.2188 4.04012 12.0089 4.25 11.75 4.25Z" fill="#EC2227"/>
<path d="M10.9184 7.0625C10.1955 7.0625 9.49346 7.26881 8.88833 7.65916C8.38467 7.984 7.96808 8.42222 7.6703 8.9375H2.15577C2.00527 8.9375 1.86389 9.00981 1.77577 9.13181L0.760145 10.5381C0.641801 10.7019 0.641801 10.9231 0.760145 11.0869L1.77577 12.4932C1.86389 12.6152 2.00527 12.6875 2.15577 12.6875H3.1008C3.25705 12.6875 3.40305 12.6096 3.49008 12.4798L3.75846 12.0797L4.02686 12.4798C4.11389 12.6096 4.25989 12.6875 4.41614 12.6875H5.60077C5.75705 12.6875 5.90302 12.6096 5.99008 12.4798L6.25846 12.0797L6.52686 12.4798C6.61389 12.6096 6.75989 12.6875 6.91617 12.6875H7.6703C7.96805 13.2028 8.38467 13.641 8.88833 13.9658C9.49346 14.3562 10.1955 14.5625 10.9184 14.5625C12.9862 14.5625 14.6684 12.8802 14.6684 10.8125C14.6684 8.74475 12.9862 7.0625 10.9184 7.0625ZM12.312 11.2812C12.312 11.5401 12.1021 11.75 11.8433 11.75C11.5844 11.75 11.3745 11.5401 11.3745 11.2812V10.3438C11.3745 10.0849 11.5844 9.875 11.8433 9.875C12.1021 9.875 12.312 10.0849 12.312 10.3438V11.2812Z" fill="#EC2227"/>
</svg>
