<svg width="16" height="16" viewBox="0 0 16 16" fill="none" xmlns="http://www.w3.org/2000/svg">
<g clip-path="url(#clip0)">
<path d="M4.66975 8.48828H11.3303C12.755 8.48828 13.9141 7.32919 13.9141 5.90447C13.9141 4.61575 12.9657 3.54434 11.7302 3.35156C11.5301 1.47025 9.93353 0 8 0C6.06659 0 4.47013 1.47025 4.26984 3.35156C3.03437 3.54437 2.08594 4.61578 2.08594 5.9045C2.08594 7.32922 3.24503 8.48828 4.66975 8.48828Z" fill="#EC2227"/>
<path d="M13.1562 13.1875H10.3438C10.0849 13.1875 9.875 13.3974 9.875 13.6562V15.5312C9.875 15.7901 10.0849 16 10.3438 16H13.1562C13.4151 16 13.625 15.7901 13.625 15.5312V13.6562C13.625 13.3974 13.4151 13.1875 13.1562 13.1875Z" fill="#EC2227"/>
<path d="M12.2173 12.25V10.8438C12.2173 10.5849 12.0073 10.375 11.7485 10.375H8.46725V9.4375H7.52975V10.375H4.15479C3.89591 10.375 3.68604 10.5849 3.68604 10.8438V12.25H4.62354V11.3125H11.2798V12.25H12.2173Z" fill="#EC2227"/>
<path d="M5.65625 13.1875H2.84375C2.58487 13.1875 2.375 13.3974 2.375 13.6562V15.5312C2.375 15.7901 2.58487 16 2.84375 16H5.65625C5.91509 16 6.125 15.7901 6.125 15.5312V13.6562C6.125 13.3974 5.91509 13.1875 5.65625 13.1875Z" fill="#EC2227"/>
</g>
<defs>
<clipPath id="clip0">
<rect width="16" height="16" fill="white"/>
</clipPath>
</defs>
</svg>
