<svg width="16" height="16" viewBox="0 0 16 16" fill="none" xmlns="http://www.w3.org/2000/svg">
<path d="M12.25 1.03125H0.46875C0.209875 1.03125 0 1.24112 0 1.5V3.84375H12.25V1.03125Z" fill="#EC2227"/>
<path d="M0 14.5C0 14.7589 0.209875 14.9688 0.46875 14.9688H15.5312C15.7901 14.9688 16 14.7589 16 14.5V4.78125H0V14.5ZM2.01231 9.54356L2.94981 8.60606C3.13284 8.423 3.42966 8.423 3.61272 8.60606C3.79578 8.78913 3.79578 9.08591 3.61272 9.26897L3.47541 9.40625H7.53125V7.78791L7.39394 7.92519C7.21091 8.10825 6.91409 8.10825 6.73103 7.92519C6.54797 7.74213 6.54797 7.44534 6.73103 7.26228L7.66853 6.32478C7.85156 6.14172 8.14837 6.14172 8.33144 6.32478L9.26894 7.26228C9.452 7.44534 9.452 7.74213 9.26894 7.92519C9.17744 8.01675 9.05747 8.0625 8.9375 8.0625C8.81753 8.0625 8.69756 8.01675 8.60606 7.92519L8.46875 7.78791V9.40625H12.5246L12.3873 9.26894C12.2043 9.08587 12.2043 8.78909 12.3873 8.60603C12.5703 8.42297 12.8672 8.42297 13.0502 8.60603L13.9877 9.54353C14.1708 9.72659 14.1708 10.0234 13.9877 10.2064L13.0502 11.1439C12.9587 11.2355 12.8387 11.2812 12.7188 11.2812C12.5988 11.2812 12.4788 11.2355 12.3873 11.1439C12.2043 10.9609 12.2043 10.6641 12.3873 10.481L12.5246 10.3437H8.46875V11.9621L8.60606 11.8247C8.78909 11.6417 9.08591 11.6417 9.26897 11.8247C9.45203 12.0078 9.45203 12.3046 9.26897 12.4877L8.33147 13.4252C8.23994 13.5168 8.11997 13.5625 8 13.5625C7.88003 13.5625 7.76006 13.5167 7.66856 13.4252L6.73106 12.4877C6.548 12.3046 6.548 12.0078 6.73106 11.8248C6.91409 11.6417 7.21091 11.6417 7.39397 11.8248L7.53128 11.9621V10.3438H3.47541L3.61272 10.4811C3.79578 10.6641 3.79578 10.9609 3.61272 11.144C3.52119 11.2355 3.40122 11.2812 3.28125 11.2812C3.16128 11.2812 3.04131 11.2355 2.94981 11.1439L2.01231 10.2064C1.82925 10.0234 1.82925 9.72659 2.01231 9.54356Z" fill="#EC2227"/>
<path d="M15.5312 1.03125H13.1875V3.84375H16V1.5C16 1.24112 15.7901 1.03125 15.5312 1.03125Z" fill="#EC2227"/>
</svg>
