<svg width="16" height="16" viewBox="0 0 16 16" fill="none" xmlns="http://www.w3.org/2000/svg">
<path d="M14.125 5.8125V1.28125C14.125 1.02237 13.9151 0.8125 13.6562 0.8125H0.46875C0.209875 0.8125 0 1.02237 0 1.28125V8.625H10.375V7.21875C10.375 6.44334 11.0058 5.8125 11.7812 5.8125H14.125Z" fill="#EC2227"/>
<path d="M0 11.9062C0 12.1651 0.209875 12.375 0.46875 12.375H10.375V9.5625H0V11.9062Z" fill="#EC2227"/>
<path d="M9.40625 14.25H8.9375V13.3125H5.1875V14.25H4.71875C4.45987 14.25 4.25 14.4599 4.25 14.7188C4.25 14.9776 4.45987 15.1875 4.71875 15.1875H9.40625C9.66512 15.1875 9.875 14.9776 9.875 14.7188C9.875 14.4599 9.66512 14.25 9.40625 14.25Z" fill="#EC2227"/>
<path d="M15.5312 6.75H11.7812C11.5224 6.75 11.3125 6.95987 11.3125 7.21875V14.7188C11.3125 14.9776 11.5224 15.1875 11.7812 15.1875H15.5312C15.7901 15.1875 16 14.9776 16 14.7188V7.21875C16 6.95987 15.7901 6.75 15.5312 6.75ZM13.6562 13.7812C13.3974 13.7812 13.1875 13.5714 13.1875 13.3125C13.1875 13.0536 13.3974 12.8438 13.6562 12.8438C13.9151 12.8438 14.125 13.0536 14.125 13.3125C14.125 13.5714 13.9151 13.7812 13.6562 13.7812Z" fill="#EC2227"/>
</svg>
