<svg width="16" height="16" viewBox="0 0 16 16" fill="none" xmlns="http://www.w3.org/2000/svg">
<g clip-path="url(#clip0)">
<path d="M8.92008 0.79541H0.467836C0.209466 0.79541 0 1.00488 0 1.26325V2.66675H8.92008V0.79541Z" fill="#EC2227"/>
<path d="M11.7278 1.26325C11.7278 1.00488 11.5183 0.79541 11.26 0.79541H9.85645V2.66675H11.7278V1.26325Z" fill="#EC2227"/>
<path d="M2.21338 5.78564H7.39077V6.75251H2.21338V5.78564Z" fill="#EC2227"/>
<path d="M15.5322 13.3335H7.98444C7.72607 13.3335 7.5166 13.543 7.5166 13.8013V14.737C7.5166 14.9954 7.72607 15.2048 7.98444 15.2048H15.5322C15.7906 15.2048 16 14.9954 16 14.737V13.8013C16 13.543 15.7906 13.3335 15.5322 13.3335Z" fill="#EC2227"/>
<path d="M11.2935 6.54403L9.91113 9.9487H13.5428L12.1605 6.54403C12.0888 6.3676 11.9174 6.2522 11.727 6.2522C11.5366 6.2522 11.3651 6.3676 11.2935 6.54403Z" fill="#EC2227"/>
<path d="M8.91699 12.3978H14.5373L13.9228 10.8845H9.53142L8.91699 12.3978Z" fill="#EC2227"/>
<path d="M10.4267 6.19223C10.6426 5.66036 11.1531 5.31672 11.7271 5.31672V3.60254H0V12.8657C0 13.1241 0.209466 13.3335 0.467836 13.3335H6.66108C6.84588 12.8125 7.33028 12.432 7.90618 12.4002L10.4267 6.19223ZM5.9883 11.4622H1.74659C1.48822 11.4622 1.27875 11.2527 1.27875 10.9944C1.27875 10.736 1.48822 10.5265 1.74659 10.5265H5.9883C6.24667 10.5265 6.45614 10.736 6.45614 10.9944C6.45614 11.2527 6.24667 11.4622 5.9883 11.4622ZM6.92398 9.59084H1.74659C1.48822 9.59084 1.27875 9.38138 1.27875 9.12301C1.27875 8.86464 1.48822 8.65517 1.74659 8.65517H6.92398C7.18235 8.65517 7.39181 8.86464 7.39181 9.12301C7.39181 9.38138 7.18235 9.59084 6.92398 9.59084ZM1.74659 7.68831C1.48822 7.68831 1.27875 7.47884 1.27875 7.22047V5.31794C1.27875 5.05957 1.48822 4.8501 1.74659 4.8501H7.85965C8.11802 4.8501 8.32749 5.05957 8.32749 5.31794V7.22047C8.32749 7.47884 8.11802 7.68831 7.85965 7.68831H1.74659Z" fill="#EC2227"/>
</g>
<defs>
<clipPath id="clip0">
<rect width="16" height="16" fill="white"/>
</clipPath>
</defs>
</svg>
