<svg width="16" height="16" viewBox="0 0 16 16" fill="none" xmlns="http://www.w3.org/2000/svg">
<path d="M0.46875 2.8125C0.727594 2.8125 0.9375 2.60262 0.9375 2.34375V0.9375H2.34375C2.60259 0.9375 2.8125 0.727625 2.8125 0.46875C2.8125 0.209875 2.60259 0 2.34375 0H0.46875C0.209875 0 0 0.209875 0 0.46875V2.34375C0 2.60262 0.209875 2.8125 0.46875 2.8125Z" fill="#EC2227"/>
<path d="M2.34375 15.0625H0.9375V13.6562C0.9375 13.3974 0.727594 13.1875 0.46875 13.1875C0.209875 13.1875 0 13.3974 0 13.6562V15.5312C0 15.7901 0.209875 16 0.46875 16H2.34375C2.60259 16 2.8125 15.7901 2.8125 15.5312C2.8125 15.2724 2.60259 15.0625 2.34375 15.0625Z" fill="#EC2227"/>
<path d="M15.5312 13.1875C15.2724 13.1875 15.0625 13.3974 15.0625 13.6562V15.0625H13.6562C13.3974 15.0625 13.1875 15.2724 13.1875 15.5312C13.1875 15.7901 13.3974 16 13.6562 16H15.5312C15.7901 16 16 15.7901 16 15.5312V13.6562C16 13.3974 15.7901 13.1875 15.5312 13.1875Z" fill="#EC2227"/>
<path d="M15.5312 0H13.6562C13.3974 0 13.1875 0.209875 13.1875 0.46875C13.1875 0.727625 13.3974 0.9375 13.6562 0.9375H15.0625V2.34375C15.0625 2.60262 15.2724 2.8125 15.5312 2.8125C15.7901 2.8125 16 2.60262 16 2.34375V0.46875C16 0.209875 15.7901 0 15.5312 0Z" fill="#EC2227"/>
<path d="M4.9465 6.77568L12.0716 2.73334L10.9635 2.10181L3.83838 6.14415L4.9465 6.77568Z" fill="#EC2227"/>
<path d="M1.36816 4.46385C1.36816 4.63226 1.45851 4.78772 1.60482 4.8711L2.89076 5.60397L10.0159 1.56163L8.23135 0.544631C8.08748 0.462662 7.91104 0.462662 7.76716 0.544631L1.60482 4.0566C1.45848 4.13994 1.36816 4.29544 1.36816 4.46385Z" fill="#EC2227"/>
<path d="M14.3943 4.05659L13.0201 3.27344L5.89502 7.31581L7.7678 8.3831C7.83974 8.42407 7.9198 8.4446 7.99989 8.4446C8.07999 8.4446 8.16005 8.4241 8.23199 8.3831L14.3943 4.87106C14.5407 4.78769 14.631 4.63222 14.631 4.46381C14.631 4.29541 14.5406 4.13994 14.3943 4.05659Z" fill="#EC2227"/>
<path d="M14.3947 7.56874L12.9748 6.75952L8.69658 9.19777C8.48473 9.31846 8.24398 9.38224 8.0003 9.38224C7.75658 9.38224 7.51586 9.31846 7.30411 9.1978L3.0257 6.75952L1.60577 7.56874C1.45945 7.65211 1.36914 7.80761 1.36914 7.97599C1.36914 8.1444 1.45948 8.29986 1.60577 8.38324L7.76814 11.8953C7.84011 11.9363 7.92017 11.9568 8.00027 11.9568C8.08036 11.9568 8.16042 11.9363 8.23239 11.8953L14.3947 8.38324C14.541 8.29986 14.6314 8.14436 14.6314 7.97599C14.6314 7.80761 14.5411 7.65211 14.3947 7.56874Z" fill="#EC2227"/>
<path d="M14.6314 11.488C14.6314 11.3196 14.541 11.1641 14.3947 11.0807L12.9748 10.2715L8.69661 12.7097C8.48464 12.8305 8.24392 12.8942 8.0003 12.8942C7.75667 12.8942 7.51595 12.8305 7.3042 12.7099L3.02573 10.2715L1.6058 11.0808C1.45945 11.1641 1.36914 11.3196 1.36914 11.488C1.36914 11.6564 1.45948 11.8119 1.6058 11.8953L7.76817 15.4073C7.84011 15.4483 7.92017 15.4688 8.00027 15.4688C8.08036 15.4688 8.16042 15.4483 8.23236 15.4073L14.3947 11.8953C14.5411 11.8119 14.6314 11.6564 14.6314 11.488Z" fill="#EC2227"/>
</svg>
