<svg width="16" height="16" viewBox="0 0 16 16" fill="none" xmlns="http://www.w3.org/2000/svg">
<path d="M5.98473 8.26585C6.21037 8.26585 6.39329 8.08293 6.39329 7.85729C6.39329 7.63165 6.21037 7.44873 5.98473 7.44873C5.75909 7.44873 5.57617 7.63165 5.57617 7.85729C5.57617 8.08293 5.75909 8.26585 5.98473 8.26585Z" fill="#EC2227"/>
<path d="M12.0344 4.97194C11.8813 4.97194 11.7288 4.98065 11.5776 4.9981C11.3953 4.24554 10.9951 3.56007 10.4175 3.02507C9.68249 2.34433 8.72577 1.96948 7.7235 1.96948C5.87944 1.96948 4.30765 3.22872 3.87524 4.97298C1.73005 5.02105 0 6.78109 0 8.93756C0 11.1243 1.77901 12.9033 3.96562 12.9033H4.10143C4.17328 13.5367 4.71207 14.0305 5.36428 14.0305H10.6356C11.2879 14.0305 11.8267 13.5367 11.8985 12.9033H12.0343C14.2209 12.9033 15.9999 11.1243 15.9999 8.93756C16 6.75095 14.221 4.97194 12.0344 4.97194ZM11.1628 12.7591C11.1628 13.0502 10.9268 13.2863 10.6357 13.2863H5.36432C5.07319 13.2863 4.83721 13.0502 4.83721 12.7591V11.9721C4.83721 11.681 5.07319 11.4449 5.36432 11.4449H10.6357C10.9268 11.4449 11.1628 11.681 11.1628 11.9721V12.7591ZM11.1628 10.5049C11.1628 10.7961 10.9268 11.0321 10.6357 11.0321H5.36432C5.07319 11.0321 4.83721 10.7961 4.83721 10.5049V9.71787C4.83721 9.42675 5.07319 9.19084 5.36432 9.19084H10.6357C10.9268 9.19084 11.1628 9.42675 11.1628 9.71787V10.5049ZM11.1628 8.25078C11.1628 8.54191 10.9268 8.77797 10.6357 8.77797H5.36432C5.07319 8.77797 4.83721 8.54191 4.83721 8.25078V7.46381C4.83721 7.17268 5.07319 6.93655 5.36432 6.93655H10.6357C10.9268 6.93655 11.1628 7.17268 11.1628 7.46381V8.25078Z" fill="#EC2227"/>
<path d="M5.98379 12.7742C6.20945 12.7742 6.39239 12.5913 6.39239 12.3656C6.39239 12.14 6.20945 11.957 5.98379 11.957C5.75813 11.957 5.5752 12.14 5.5752 12.3656C5.5752 12.5913 5.75813 12.7742 5.98379 12.7742Z" fill="#EC2227"/>
<path d="M5.98372 10.5199C6.20934 10.5199 6.39224 10.337 6.39224 10.1114C6.39224 9.88578 6.20934 9.70288 5.98372 9.70288C5.7581 9.70288 5.5752 9.88578 5.5752 10.1114C5.5752 10.337 5.7581 10.5199 5.98372 10.5199Z" fill="#EC2227"/>
</svg>
