<svg width="16" height="16" viewBox="0 0 16 16" fill="none" xmlns="http://www.w3.org/2000/svg">
<path d="M15.5312 1.03125H13.1875V3.84375H16V1.5C16 1.24112 15.7901 1.03125 15.5312 1.03125Z" fill="#EC2227"/>
<path d="M12.25 1.03125H0.46875C0.209875 1.03125 0 1.24112 0 1.5V3.84375H12.25V1.03125Z" fill="#EC2227"/>
<path d="M3.4375 8H6.25V10.8125H3.4375V8Z" fill="#EC2227"/>
<path d="M0 14.5C0 14.7589 0.209875 14.9688 0.46875 14.9688H15.5312C15.7901 14.9688 16 14.7589 16 14.5V4.78125H0V14.5ZM11.2812 7.0625H13.0312C13.2901 7.0625 13.5 7.27238 13.5 7.53125C13.5 7.79012 13.2901 8 13.0312 8H11.2812C11.0224 8 10.8125 7.79012 10.8125 7.53125C10.8125 7.27238 11.0224 7.0625 11.2812 7.0625ZM10.3438 8.9375H13.0312C13.2901 8.9375 13.5 9.14738 13.5 9.40625C13.5 9.66512 13.2901 9.875 13.0312 9.875H10.3438C10.0849 9.875 9.875 9.66512 9.875 9.40625C9.875 9.14738 10.0849 8.9375 10.3438 8.9375ZM10.3438 10.8125H13.0312C13.2901 10.8125 13.5 11.0224 13.5 11.2812C13.5 11.5401 13.2901 11.75 13.0312 11.75H10.3438C10.0849 11.75 9.875 11.5401 9.875 11.2812C9.875 11.0224 10.0849 10.8125 10.3438 10.8125ZM2.5 7.53125C2.5 7.27238 2.70988 7.0625 2.96875 7.0625H6.71875C6.97762 7.0625 7.1875 7.27238 7.1875 7.53125V11.2812C7.1875 11.5401 6.97762 11.75 6.71875 11.75H2.96875C2.70988 11.75 2.5 11.5401 2.5 11.2812V7.53125Z" fill="#EC2227"/>
</svg>
