<svg width="16" height="16" viewBox="0 0 16 16" fill="none" xmlns="http://www.w3.org/2000/svg">
<g clip-path="url(#clip0)">
<path d="M5.65441 2.81319H10.3431C10.602 2.81319 10.8119 2.60326 10.8119 2.34432V0.468865C10.8119 0.209926 10.602 0 10.3431 0H5.65441C5.39547 0 5.18555 0.209926 5.18555 0.468865V2.34432C5.18555 2.60326 5.39544 2.81319 5.65441 2.81319Z" fill="#EC2227"/>
<path d="M14.5955 7.2478H9.90685C9.64791 7.2478 9.43799 7.45773 9.43799 7.71667V9.59212C9.43799 9.85106 9.64791 10.061 9.90685 10.061H14.5955C14.8544 10.061 15.0644 9.85106 15.0644 9.59212V7.71667C15.0644 7.45773 14.8544 7.2478 14.5955 7.2478Z" fill="#EC2227"/>
<path d="M6.09257 7.2478H1.40392C1.14498 7.2478 0.935059 7.45773 0.935059 7.71667V9.59212C0.935059 9.85106 1.14498 10.061 1.40392 10.061H6.09257C6.35151 10.061 6.56143 9.85106 6.56143 9.59212V7.71667C6.56143 7.45773 6.35151 7.2478 6.09257 7.2478Z" fill="#EC2227"/>
<path d="M14.5955 13.1868H9.90685C9.64791 13.1868 9.43799 13.3967 9.43799 13.6556V15.5311C9.43799 15.79 9.64791 16 9.90685 16H14.5955C14.8544 16 15.0644 15.79 15.0644 15.5311V13.6556C15.0644 13.3967 14.8544 13.1868 14.5955 13.1868Z" fill="#EC2227"/>
<path d="M6.09257 13.1868H1.40392C1.14498 13.1868 0.935059 13.3967 0.935059 13.6556V15.5311C0.935059 15.79 1.14498 16 1.40392 16H6.09257C6.35151 16 6.56143 15.79 6.56143 15.5311V13.6556C6.56143 13.3967 6.35151 13.1868 6.09257 13.1868Z" fill="#EC2227"/>
<path d="M4.218 5.37247H11.7823V6.3102H12.7201V4.9036C12.7201 4.64466 12.5102 4.43474 12.2512 4.43474H8.46904V3.75098H7.53131V4.43474H3.74914C3.4902 4.43474 3.28027 4.64466 3.28027 4.9036V6.3102H4.218V5.37247Z" fill="#EC2227"/>
<path d="M11.7812 10.9988H12.719V12.2491H11.7812V10.9988Z" fill="#EC2227"/>
<path d="M3.28027 10.9988H4.218V12.2491H3.28027V10.9988Z" fill="#EC2227"/>
</g>
<defs>
<clipPath id="clip0">
<rect width="16" height="16" fill="white"/>
</clipPath>
</defs>
</svg>
