<svg width="16" height="16" viewBox="0 0 16 16" fill="none" xmlns="http://www.w3.org/2000/svg">
<path d="M7.5625 6.15625V8.96875C7.5625 9.22762 7.77237 9.4375 8.03125 9.4375H13.6562C13.9151 9.4375 14.125 9.22762 14.125 8.96875V6.15625C14.125 5.89737 13.9151 5.6875 13.6562 5.6875H8.03125C7.77237 5.6875 7.5625 5.89737 7.5625 6.15625Z" fill="#EC2227"/>
<path d="M11.7812 13.1875H9.90625C9.64737 13.1875 9.4375 13.3974 9.4375 13.6562V15.5312C9.4375 15.7901 9.64737 16 9.90625 16H11.7812C12.0401 16 12.25 15.7901 12.25 15.5312V13.6562C12.25 13.3974 12.0401 13.1875 11.7812 13.1875Z" fill="#EC2227"/>
<path d="M9.61474 0.46875C9.61474 0.209875 9.40487 0 9.14599 0H7.73975V1.875H9.61474V0.46875Z" fill="#EC2227"/>
<path d="M6.80209 0H0.46875C0.209875 0 0 0.209875 0 0.46875V1.875H6.80209V0Z" fill="#EC2227"/>
<path d="M9.61459 10.8438V10.375H8.03125C7.25584 10.375 6.625 9.74419 6.625 8.96875V6.15625C6.625 5.38081 7.25584 4.75 8.03125 4.75H9.61459V2.8125H0V10.8438C0 11.1026 0.209875 11.3125 0.46875 11.3125H9.14584C9.40472 11.3125 9.61459 11.1026 9.61459 10.8438ZM4.74903 9.40625H1.875C1.61612 9.40625 1.40625 9.19637 1.40625 8.9375C1.40625 8.67863 1.61612 8.46875 1.875 8.46875H4.74903C5.00791 8.46875 5.21778 8.67863 5.21778 8.9375C5.21778 9.19637 5.00791 9.40625 4.74903 9.40625ZM4.74903 7.53125H1.875C1.61612 7.53125 1.40625 7.32137 1.40625 7.0625C1.40625 6.80363 1.61612 6.59375 1.875 6.59375H4.74903C5.00791 6.59375 5.21778 6.80363 5.21778 7.0625C5.21778 7.32137 5.00791 7.53125 4.74903 7.53125ZM4.74903 5.65625H1.875C1.61612 5.65625 1.40625 5.44637 1.40625 5.1875C1.40625 4.92863 1.61612 4.71875 1.875 4.71875H4.74903C5.00791 4.71875 5.21778 4.92863 5.21778 5.1875C5.21778 5.44637 5.00791 5.65625 4.74903 5.65625Z" fill="#EC2227"/>
<path d="M15.0625 7.17432V9.90619C15.0625 10.1647 14.8523 10.3749 14.5938 10.3749H11.7812C11.0058 10.3749 10.375 11.0058 10.375 11.7812V12.2499H11.3125V11.7812C11.3125 11.5227 11.5228 11.3124 11.7812 11.3124H14.5938C15.3692 11.3124 16 10.6816 16 9.90619V8.49994C16 7.88885 15.6081 7.36785 15.0625 7.17432Z" fill="#EC2227"/>
</svg>
