<svg width="16" height="16" viewBox="0 0 16 16" fill="none" xmlns="http://www.w3.org/2000/svg">
<g clip-path="url(#clip0)">
<path d="M12.5625 12.25H13.5V13.1875H12.5625V12.25Z" fill="#EC2227"/>
<path d="M9.48633 5.84912L10.1491 5.18631L10.812 5.84912L10.1491 6.51193L9.48633 5.84912Z" fill="#EC2227"/>
<path d="M2.8125 6.25H3.75V7.1875H2.8125V6.25Z" fill="#EC2227"/>
<path d="M2.8125 2.5H3.75V3.4375H2.8125V2.5Z" fill="#EC2227"/>
<path d="M9.7505 12.2175L8.77881 13.1876H9.7505V12.2175Z" fill="#EC2227"/>
<path d="M15.5317 9.4375H12.5304L10.688 11.2768V13.6562C10.688 13.9151 10.4781 14.125 10.2192 14.125H7.8379L5.96631 16H15.5317C15.7906 16 16.0005 15.7901 16.0005 15.5312V9.90625C16.0005 9.64737 15.7906 9.4375 15.5317 9.4375ZM14.438 13.6562C14.438 13.9151 14.2281 14.125 13.9692 14.125H12.0942C11.8354 14.125 11.6255 13.9151 11.6255 13.6562V11.7812C11.6255 11.5224 11.8354 11.3125 12.0942 11.3125H13.9692C14.2281 11.3125 14.438 11.5224 14.438 11.7812V13.6562Z" fill="#EC2227"/>
<path d="M7.5 7.83765V9.1628L8.16259 8.50024L7.5 7.83765Z" fill="#EC2227"/>
<path d="M14.4023 6.04629C14.4023 5.92195 14.353 5.80273 14.265 5.71486L10.2859 1.73573C10.198 1.64779 10.0787 1.59839 9.95441 1.59839C9.83009 1.59839 9.71087 1.64779 9.623 1.73573L7.50072 3.85839L7.49609 6.50729L9.15769 8.16892C9.24559 8.25686 9.29497 8.37608 9.29497 8.50036C9.29497 8.6247 9.24559 8.74392 9.15769 8.83179L7.50094 10.4885L7.50072 13.1408L14.265 6.37776C14.3529 6.28986 14.4023 6.17064 14.4023 6.04629ZM11.8093 6.18014L10.4835 7.50601C10.3956 7.59392 10.2764 7.64336 10.1521 7.64336C10.0277 7.64336 9.9085 7.59395 9.82059 7.50601L8.49475 6.18014C8.40681 6.0922 8.35744 5.97298 8.35744 5.84867C8.35744 5.72433 8.40681 5.60511 8.49475 5.51723L9.82059 4.19142C10.0037 4.00836 10.3005 4.00836 10.4835 4.19142L11.8093 5.51723C11.9924 5.70026 11.9924 5.99705 11.8093 6.18014Z" fill="#EC2227"/>
<path d="M6.5625 0.46875C6.5625 0.209875 6.35259 0 6.09375 0H0.46875C0.209875 0 0 0.209875 0 0.46875V12.7188C0 14.528 1.47197 16 3.28125 16C5.09053 16 6.5625 14.528 6.5625 12.7188V0.46875ZM3.28125 13.1875C3.02238 13.1875 2.8125 12.9776 2.8125 12.7188C2.8125 12.4599 3.02238 12.25 3.28125 12.25C3.54009 12.25 3.75 12.4599 3.75 12.7188C3.75 12.9776 3.54009 13.1875 3.28125 13.1875ZM4.6875 7.65625C4.6875 7.91512 4.47759 8.125 4.21875 8.125H2.34375C2.08488 8.125 1.875 7.91512 1.875 7.65625V5.78125C1.875 5.52238 2.08488 5.3125 2.34375 5.3125H4.21875C4.47759 5.3125 4.6875 5.52238 4.6875 5.78125V7.65625ZM4.6875 3.90625C4.6875 4.16512 4.47759 4.375 4.21875 4.375H2.34375C2.08488 4.375 1.875 4.16512 1.875 3.90625V2.03125C1.875 1.77237 2.08488 1.5625 2.34375 1.5625H4.21875C4.47759 1.5625 4.6875 1.77237 4.6875 2.03125V3.90625Z" fill="#EC2227"/>
</g>
<defs>
<clipPath id="clip0">
<rect width="16" height="16" fill="white"/>
</clipPath>
</defs>
</svg>
