<svg width="16" height="16" viewBox="0 0 16 16" fill="none" xmlns="http://www.w3.org/2000/svg">
<path d="M0 4.21875V15.5312C0 15.7901 0.209875 16 0.46875 16H11.3125V3.75H0.46875C0.209875 3.75 0 3.95987 0 4.21875ZM8.5 5.625H9.4375C9.69634 5.625 9.90625 5.83488 9.90625 6.09375V7.03125C9.90625 7.29012 9.69634 7.5 9.4375 7.5C9.17863 7.5 8.96875 7.29012 8.96875 7.03125V6.5625H8.5C8.24113 6.5625 8.03125 6.35262 8.03125 6.09375C8.03125 5.83488 8.24113 5.625 8.5 5.625ZM8.5 13.1875H8.96875V12.7188C8.96875 12.4599 9.17863 12.25 9.4375 12.25C9.69634 12.25 9.90625 12.4599 9.90625 12.7188V13.6562C9.90625 13.9151 9.69634 14.125 9.4375 14.125H8.5C8.24113 14.125 8.03125 13.9151 8.03125 13.6562C8.03125 13.3974 8.24113 13.1875 8.5 13.1875ZM1.40625 6.09375C1.40625 5.83488 1.61612 5.625 1.875 5.625H2.8125C3.07134 5.625 3.28125 5.83488 3.28125 6.09375C3.28125 6.35262 3.07134 6.5625 2.8125 6.5625H2.34375V7.03125C2.34375 7.29012 2.13384 7.5 1.875 7.5C1.61612 7.5 1.40625 7.29012 1.40625 7.03125V6.09375ZM1.40625 12.7188C1.40625 12.4599 1.61612 12.25 1.875 12.25C2.13384 12.25 2.34375 12.4599 2.34375 12.7188V13.1875H2.8125C3.07134 13.1875 3.28125 13.3974 3.28125 13.6562C3.28125 13.9151 3.07134 14.125 2.8125 14.125H1.875C1.61612 14.125 1.40625 13.9151 1.40625 13.6562V12.7188Z" fill="#EC2227"/>
<path d="M3.45029 2.67519C3.53816 2.76309 3.65738 2.8125 3.78172 2.8125H13.1567C13.4156 2.8125 13.6255 2.60262 13.6255 2.34375V0.46875C13.6255 0.209875 13.4156 0 13.1567 0H3.78172C3.65738 0 3.53816 0.0494063 3.45029 0.137313L2.51279 1.07481C2.32972 1.25787 2.32972 1.55466 2.51279 1.73772L3.45029 2.67519Z" fill="#EC2227"/>
<path d="M15.5312 3.75H12.25V16H15.5312C15.7901 16 16 15.7901 16 15.5312V4.21875C16 3.95987 15.7901 3.75 15.5312 3.75ZM14.125 13.5728C13.8661 13.5728 13.6562 13.3629 13.6562 13.1041C13.6562 12.8452 13.8661 12.6353 14.125 12.6353C14.3838 12.6353 14.5938 12.8452 14.5938 13.1041C14.5938 13.3629 14.3838 13.5728 14.125 13.5728ZM14.125 10.3438C13.8661 10.3438 13.6562 10.1339 13.6562 9.875C13.6562 9.61613 13.8661 9.40625 14.125 9.40625C14.3838 9.40625 14.5938 9.61613 14.5938 9.875C14.5938 10.1339 14.3838 10.3438 14.125 10.3438ZM14.125 7.11469C13.8661 7.11469 13.6562 6.90481 13.6562 6.64594C13.6562 6.38706 13.8661 6.17719 14.125 6.17719C14.3838 6.17719 14.5938 6.38706 14.5938 6.64594C14.5938 6.90481 14.3838 7.11469 14.125 7.11469Z" fill="#EC2227"/>
</svg>
