<svg width="16" height="16" viewBox="0 0 16 16" fill="none" xmlns="http://www.w3.org/2000/svg">
<path d="M8.70312 0H2.60938C2.3505 0 2.14062 0.209875 2.14062 0.46875V1.875H8.70312V0Z" fill="#EC2227"/>
<path d="M11.5156 0.46875C11.5156 0.209875 11.3058 0 11.0469 0H9.64062V1.875H11.5156V0.46875Z" fill="#EC2227"/>
<path d="M4.95312 10.5H8.70312V11.4688H4.95312V10.5Z" fill="#EC2227"/>
<path d="M11.5156 13.1875V2.8125H2.14062V13.1875C2.14062 13.4464 2.3505 13.6562 2.60938 13.6562H11.0469C11.3057 13.6562 11.5156 13.4464 11.5156 13.1875ZM9.64062 11.9375C9.64062 12.1964 9.43075 12.4062 9.17188 12.4062H4.48438C4.2255 12.4062 4.01562 12.1964 4.01562 11.9375V10.0312C4.01562 9.77238 4.2255 9.5625 4.48438 9.5625H9.17188C9.43075 9.5625 9.64062 9.77238 9.64062 10.0312V11.9375ZM9.17188 8.59375H4.48438C4.2255 8.59375 4.01562 8.38387 4.01562 8.125C4.01562 7.86613 4.2255 7.65625 4.48438 7.65625H9.17188C9.43075 7.65625 9.64062 7.86613 9.64062 8.125C9.64062 8.38387 9.43075 8.59375 9.17188 8.59375ZM9.17188 6.71875H4.48438C4.2255 6.71875 4.01562 6.50887 4.01562 6.25C4.01562 5.99113 4.2255 5.78125 4.48438 5.78125H9.17188C9.43075 5.78125 9.64062 5.99113 9.64062 6.25C9.64062 6.50887 9.43075 6.71875 9.17188 6.71875ZM9.17188 4.84375H4.48438C4.2255 4.84375 4.01562 4.63388 4.01562 4.375C4.01562 4.11612 4.2255 3.90625 4.48438 3.90625H9.17188C9.43075 3.90625 9.64062 4.11612 9.64062 4.375C9.64062 4.63388 9.43075 4.84375 9.17188 4.84375Z" fill="#EC2227"/>
<path d="M13.3906 1.875H12.4531V3.75H13.8594V2.34375C13.8594 2.08487 13.6495 1.875 13.3906 1.875Z" fill="#EC2227"/>
<path d="M12.4531 13.1875C12.4531 13.9629 11.8223 14.5938 11.0469 14.5938H4.01562V15.5312C4.01562 15.7901 4.2255 16 4.48438 16H13.3906C13.6495 16 13.8594 15.7901 13.8594 15.5312V4.6875H12.4531V13.1875Z" fill="#EC2227"/>
</svg>
