<svg width="40" height="40" viewBox="0 0 40 40" fill="none" xmlns="http://www.w3.org/2000/svg">
<path d="M13.0002 17.5121C13.0009 17.6917 13.0397 17.8694 13.1142 18.0343C13.1888 18.1993 13.2975 18.3482 13.434 18.4721L19.0316 23.6189C19.2932 23.8632 19.6449 24 20.0112 24C20.3775 24 20.7292 23.8632 20.9908 23.6189L26.5884 18.2855C26.7189 18.1612 26.8224 18.0136 26.893 17.8511C26.9637 17.6887 27 17.5146 27 17.3388C27 17.163 26.9637 16.9889 26.893 16.8265C26.8224 16.664 26.7189 16.5164 26.5884 16.3921C26.458 16.2678 26.3031 16.1692 26.1326 16.1019C25.9621 16.0346 25.7794 16 25.5949 16C25.4103 16 25.2276 16.0346 25.0571 16.1019C24.8867 16.1692 24.7318 16.2678 24.6013 16.3921L19.9972 20.7922L15.3792 16.5521C15.117 16.3038 14.7623 16.1644 14.3926 16.1644C14.0229 16.1644 13.6682 16.3038 13.406 16.5521C13.2746 16.6783 13.171 16.8282 13.1013 16.9931C13.0316 17.1579 12.9972 17.3344 13.0002 17.5121Z" fill="black"/>
</svg>
