<svg width="12" height="18" viewBox="0 0 12 18" fill="none" xmlns="http://www.w3.org/2000/svg">
<path d="M9.38 17.75C9.14426 17.7491 8.91114 17.7005 8.69462 17.6073C8.4781 17.5141 8.28265 17.3781 8.12 17.2075L1.365 10.2075C1.04435 9.88033 0.864746 9.44053 0.864746 8.98246C0.864746 8.52439 1.04435 8.08458 1.365 7.75746L8.365 0.757458C8.52816 0.594291 8.72187 0.46486 8.93506 0.376554C9.14825 0.288249 9.37674 0.242798 9.6075 0.242798C9.83825 0.242798 10.0667 0.288249 10.2799 0.376554C10.4931 0.46486 10.6868 0.594291 10.85 0.757458C11.0132 0.920626 11.1426 1.11433 11.2309 1.32752C11.3192 1.54071 11.3647 1.7692 11.3647 1.99996C11.3647 2.23071 11.3192 2.45921 11.2309 2.6724C11.1426 2.88558 11.0132 3.07929 10.85 3.24246L5.075 8.99996L10.64 14.775C10.9659 15.1028 11.1489 15.5464 11.1489 16.0087C11.1489 16.471 10.9659 16.9146 10.64 17.2425C10.4744 17.4068 10.2776 17.5363 10.0612 17.6234C9.84486 17.7106 9.61324 17.7536 9.38 17.75Z" fill="black"/>
</svg>
