<svg width="8" height="8" viewBox="0 0 8 8" fill="none" xmlns="http://www.w3.org/2000/svg">
<g clip-path="url(#clip0)">
<path d="M2.75607 7.49991C2.84587 7.49955 2.93468 7.48016 3.01716 7.44288C3.09965 7.40561 3.17411 7.35123 3.23607 7.28301L5.80943 4.48418C5.93158 4.35339 6 4.17754 6 3.99439C6 3.81124 5.93158 3.63539 5.80943 3.5046L3.14274 0.705778C3.08058 0.640538 3.00678 0.588788 2.92557 0.55348C2.84435 0.518173 2.75731 0.5 2.6694 0.5C2.58149 0.5 2.49445 0.518173 2.41323 0.55348C2.33202 0.588788 2.25822 0.640538 2.19606 0.705778C2.1339 0.771017 2.08459 0.848468 2.05095 0.933707C2.01731 1.01895 2 1.11031 2 1.20257C2 1.29483 2.01731 1.38619 2.05095 1.47143C2.08459 1.55667 2.1339 1.63412 2.19606 1.69936L4.39608 4.00139L2.27606 6.31042C2.15189 6.44151 2.0822 6.61885 2.0822 6.80371C2.0822 6.98856 2.15189 7.1659 2.27606 7.297C2.33915 7.36269 2.41411 7.41448 2.49654 7.44933C2.57897 7.48418 2.66721 7.50138 2.75607 7.49991Z" fill="#CACCD2"/>
</g>
<defs>
<clipPath id="clip0">
<rect width="8" height="8" fill="white" transform="matrix(-1 8.74228e-08 8.74228e-08 1 8 0)"/>
</clipPath>
</defs>
</svg>
