<svg width="12" height="18" viewBox="0 0 12 18" fill="none" xmlns="http://www.w3.org/2000/svg">
<path d="M2.62 17.75C2.85574 17.7491 3.08886 17.7005 3.30538 17.6073C3.5219 17.5141 3.71735 17.3781 3.88 17.2075L10.635 10.2075C10.9557 9.88033 11.1353 9.44053 11.1353 8.98246C11.1353 8.52439 10.9557 8.08458 10.635 7.75746L3.635 0.757458C3.47184 0.594291 3.27813 0.46486 3.06494 0.376554C2.85175 0.288249 2.62326 0.242798 2.3925 0.242798C2.16175 0.242798 1.93326 0.288249 1.72007 0.376554C1.50688 0.46486 1.31317 0.594291 1.15001 0.757458C0.986837 0.920626 0.857406 1.11433 0.7691 1.32752C0.680795 1.54071 0.635344 1.7692 0.635344 1.99996C0.635344 2.23071 0.680795 2.45921 0.7691 2.6724C0.857406 2.88558 0.986837 3.07929 1.15001 3.24246L6.925 8.99996L1.36 14.775C1.03407 15.1028 0.851118 15.5464 0.851118 16.0087C0.851118 16.471 1.03407 16.9146 1.36 17.2425C1.5256 17.4068 1.72237 17.5363 1.93876 17.6234C2.15514 17.7106 2.38676 17.7536 2.62 17.75Z" fill="black"/>
</svg>
