<svg width="20" height="20" viewBox="0 0 20 20" fill="none" xmlns="http://www.w3.org/2000/svg">
<g clip-path="url(#clip0)">
<path d="M10 20C6.55334 20 3.75 17.1967 3.75 13.75V5C3.75 4.53918 4.12338 4.16672 4.58328 4.16672C5.04333 4.16672 5.41672 4.53918 5.41672 5V13.75C5.41672 16.2767 7.47253 18.3333 10 18.3333C12.5275 18.3333 14.5833 16.2767 14.5833 13.75V4.58328C14.5833 2.97501 13.275 1.66672 11.6667 1.66672C10.0583 1.66672 8.75 2.97501 8.75 4.58328V12.9167C8.75 13.6058 9.31076 14.1667 10 14.1667C10.6892 14.1667 11.25 13.6058 11.25 12.9167V5C11.25 4.53918 11.6234 4.16672 12.0833 4.16672C12.5433 4.16672 12.9167 4.53918 12.9167 5V12.9167C12.9167 14.525 11.6083 15.8333 10 15.8333C8.39172 15.8333 7.08328 14.525 7.08328 12.9167V4.58328C7.08328 2.05673 9.1391 0 11.6667 0C14.1942 0 16.25 2.05673 16.25 4.58328V13.75C16.25 17.1967 13.4467 20 10 20Z" fill="#EC2227"/>
</g>
<defs>
<clipPath id="clip0">
<rect width="20" height="20" fill="white"/>
</clipPath>
</defs>
</svg>
