<svg width="64" height="64" viewBox="0 0 64 64" fill="none" xmlns="http://www.w3.org/2000/svg">
<g clip-path="url(#clip0)">
<path d="M7.922 50.409C4.66 50.409 2.01 47.759 2.01 44.497C2.01 41.235 4.66 38.585 7.922 38.585H31.381C31.552 37.852 31.863 37.18 32.274 36.577H7.922C4.66 36.577 2.01 33.927 2.01 30.665C2.01 27.404 4.659 24.754 7.92 24.753H7.921H45.116C47.946 24.754 50.314 26.751 50.886 29.411C51.639 29.602 52.352 29.873 53.024 30.204C52.863 27.425 51.259 25.027 48.962 23.752C51.389 22.397 53.036 19.806 53.036 16.835C53.036 12.468 49.483 8.91504 45.117 8.91504H7.92C3.553 8.91504 0 12.468 0 16.835C0 19.806 1.647 22.397 4.074 23.752C1.647 25.098 0.002 27.696 0.002 30.666C0.002 33.637 1.648 36.237 4.077 37.582C1.648 38.927 0.002 41.527 0.002 44.498C0.002 48.865 3.556 52.418 7.922 52.418H23.3C22.828 51.816 22.437 51.133 22.156 50.41H7.922V50.409ZM2.008 16.834C2.008 13.574 4.66 10.922 7.92 10.922H45.117C48.376 10.922 51.028 13.574 51.028 16.834C51.028 20.093 48.376 22.745 45.117 22.745H45.116C45.115 22.745 45.114 22.745 45.113 22.745H7.922C7.921 22.745 7.92 22.745 7.919 22.745C4.659 22.744 2.008 20.093 2.008 16.834ZM5.703 43.493H22.416C22.095 44.125 21.864 44.798 21.713 45.501H5.703V43.493ZM44.671 27.442C45.876 27.442 46.93 28.105 47.482 29.088C46.649 29.138 45.846 29.289 45.073 29.52C44.953 29.47 44.812 29.45 44.671 29.45C44.229 29.45 43.838 29.691 43.637 30.052C42.884 30.393 42.181 30.825 41.529 31.327C41.479 31.116 41.459 30.895 41.459 30.665C41.459 28.888 42.905 27.442 44.671 27.442ZM34.362 30.664C34.362 32.439 35.807 33.884 37.583 33.884C39.358 33.884 40.803 32.439 40.803 30.664C40.803 28.889 39.358 27.444 37.583 27.444C35.807 27.444 34.362 28.889 34.362 30.664ZM38.796 30.664C38.796 31.333 38.252 31.877 37.583 31.877C36.914 31.877 36.37 31.333 36.37 30.664C36.37 29.995 36.914 29.451 37.583 29.451C38.252 29.452 38.796 29.996 38.796 30.664ZM5.703 29.661H30.712V31.669H5.703V29.661ZM44.675 20.054C46.451 20.054 47.896 18.609 47.896 16.834C47.896 15.059 46.451 13.614 44.675 13.614C42.9 13.614 41.455 15.059 41.455 16.834C41.455 18.609 42.9 20.054 44.675 20.054ZM44.675 15.621C45.345 15.621 45.889 16.165 45.889 16.834C45.889 17.503 45.345 18.047 44.675 18.047C44.006 18.047 43.462 17.503 43.462 16.834C43.463 16.165 44.007 15.621 44.675 15.621ZM37.583 20.054C39.358 20.054 40.803 18.609 40.803 16.834C40.803 15.059 39.358 13.614 37.583 13.614C35.807 13.614 34.362 15.059 34.362 16.834C34.362 18.609 35.807 20.054 37.583 20.054ZM37.583 15.621C38.252 15.621 38.796 16.165 38.796 16.834C38.796 17.503 38.252 18.047 37.583 18.047C36.914 18.047 36.37 17.503 36.37 16.834C36.37 16.165 36.914 15.621 37.583 15.621ZM30.712 17.837H5.703V15.83H30.712V17.837ZM61.969 42.039C60.684 40.627 58.925 39.739 57.014 39.532C56.111 35.021 52.146 31.717 47.462 31.717C44.335 31.717 41.457 33.184 39.629 35.674C39.33 35.625 39.028 35.6 38.724 35.6C36.215 35.6 34.023 37.19 33.204 39.49C28.772 39.316 25.098 42.882 25.098 47.285C25.098 51.586 28.597 55.085 32.899 55.085H56.004C60.098 55.085 63.596 51.987 63.968 48.034C64.172 45.845 63.444 43.659 61.969 42.039ZM61.968 47.847C61.692 50.781 59.071 53.079 56.002 53.079H32.897C29.703 53.079 27.104 50.48 27.104 47.287C27.104 44.092 29.703 41.494 32.897 41.494C33.192 41.494 33.494 41.518 33.792 41.565L34.757 41.718L34.935 40.757C35.273 38.934 36.866 37.61 38.722 37.61C39.08 37.61 39.436 37.663 39.779 37.768L40.513 37.992L40.921 37.341C42.341 35.078 44.785 33.727 47.46 33.727C51.408 33.727 54.713 36.683 55.147 40.602L55.3 41.495H56.199C57.823 41.495 59.385 42.187 60.483 43.393C61.596 44.611 62.122 46.194 61.968 47.847ZM50.507 45.19H52.515C52.515 48.365 49.932 50.949 46.757 50.949C43.582 50.949 40.998 48.365 40.998 45.19C40.998 42.711 42.576 40.599 44.778 39.79L43.722 39.247L44.64 37.461L49.264 39.84L46.373 43.893L44.738 42.726L45.488 41.675C44.045 42.198 43.006 43.568 43.006 45.189C43.006 47.257 44.689 48.941 46.758 48.941C48.827 48.941 50.507 47.259 50.507 45.19Z" fill="#EC2227"/>
</g>
<defs>
<clipPath id="clip0">
<rect width="64" height="64" fill="white"/>
</clipPath>
</defs>
</svg>
