<svg width="64" height="64" viewBox="0 0 64 64" fill="none" xmlns="http://www.w3.org/2000/svg">
<g clip-path="url(#clip0)">
<path d="M32 22.76C34.253 22.76 36.086 20.927 36.086 18.674C36.086 16.421 34.253 14.588 32 14.588C29.747 14.588 27.915 16.421 27.915 18.674C27.915 20.927 29.747 22.76 32 22.76ZM32 16.368C33.272 16.368 34.306 17.403 34.306 18.674C34.306 19.945 33.272 20.98 32 20.98C30.729 20.98 29.694 19.945 29.694 18.674C29.694 17.403 30.729 16.368 32 16.368ZM24.822 46.424H39.179V48.204H24.822V46.424ZM24.822 43.54H39.179V45.32H24.822V43.54ZM24.822 40.656H39.179V42.436H24.822V40.656ZM24.822 24.076H39.179V25.856H24.822V24.076ZM61.331 17.927H44.15C43.836 17.927 43.54 17.991 43.26 18.091V13.387C43.26 11.915 42.063 10.718 40.591 10.718H23.41C21.938 10.718 20.741 11.915 20.741 13.387V18.091C20.461 17.991 20.165 17.927 19.851 17.927H2.669C1.197 17.927 0 19.124 0 20.596V50.614C0 52.086 1.197 53.283 2.669 53.283H19.85C20.536 53.283 21.156 53.016 21.63 52.589C22.103 53.016 22.723 53.283 23.41 53.283H40.591C41.277 53.283 41.897 53.016 42.371 52.589C42.844 53.016 43.464 53.283 44.151 53.283H61.332C62.804 53.283 64.001 52.086 64.001 50.614V20.596C64 19.124 62.803 17.927 61.331 17.927ZM19.85 51.503H2.669C2.178 51.503 1.779 51.104 1.779 50.613V20.596C1.779 20.105 2.178 19.706 2.669 19.706H19.85C20.341 19.706 20.74 20.105 20.74 20.596V50.614C20.74 51.105 20.341 51.503 19.85 51.503ZM40.591 51.503H23.41C22.919 51.503 22.52 51.104 22.52 50.613V20.596V13.386C22.52 12.895 22.919 12.496 23.41 12.496H40.591C41.082 12.496 41.481 12.895 41.481 13.386V20.596V50.614C41.481 51.105 41.081 51.503 40.591 51.503ZM62.22 50.614C62.22 51.105 61.821 51.504 61.33 51.504H44.15C43.659 51.504 43.26 51.105 43.26 50.614V20.596C43.26 20.105 43.659 19.706 44.15 19.706H61.331C61.822 19.706 62.221 20.105 62.221 20.596L62.22 50.614ZM52.74 29.968C54.993 29.968 56.826 28.135 56.826 25.882C56.826 23.63 54.993 21.797 52.74 21.797C50.487 21.797 48.654 23.63 48.654 25.882C48.655 28.136 50.488 29.968 52.74 29.968ZM52.74 23.577C54.012 23.577 55.046 24.611 55.046 25.882C55.046 27.153 54.012 28.188 52.74 28.188C51.468 28.188 50.434 27.153 50.434 25.882C50.434 24.611 51.469 23.577 52.74 23.577ZM45.562 46.424H59.919V48.204H45.562V46.424ZM45.562 43.54H59.919V45.32H45.562V43.54ZM45.562 40.656H59.919V42.436H45.562V40.656ZM45.562 31.285H59.919V33.065H45.562V31.285ZM11.26 29.968C13.513 29.968 15.345 28.135 15.345 25.882C15.345 23.63 13.512 21.797 11.26 21.797C9.008 21.797 7.174 23.63 7.174 25.882C7.174 28.136 9.007 29.968 11.26 29.968ZM11.26 23.577C12.531 23.577 13.566 24.611 13.566 25.882C13.566 27.153 12.532 28.188 11.26 28.188C9.988 28.188 8.954 27.153 8.954 25.882C8.954 24.611 9.988 23.577 11.26 23.577ZM4.081 46.424H18.438V48.204H4.081V46.424ZM4.081 43.54H18.438V45.32H4.081V43.54ZM4.081 40.656H18.438V42.436H4.081V40.656ZM4.081 31.285H18.438V33.065H4.081V31.285Z" fill="#EC2227"/>
</g>
<defs>
<clipPath id="clip0">
<rect width="64" height="64" fill="white"/>
</clipPath>
</defs>
</svg>
