<svg width="34" height="34" viewBox="0 0 34 34" fill="none" xmlns="http://www.w3.org/2000/svg">
<path d="M8.49284 13.9848C8.49374 14.2205 8.54226 14.4536 8.63548 14.6701C8.7287 14.8866 8.86471 15.0821 9.03534 15.2448L16.0353 21.9998C16.3625 22.3204 16.8023 22.5 17.2603 22.5C17.7184 22.5 18.1582 22.3204 18.4853 21.9998L25.4853 14.9998C25.6485 14.8366 25.7779 14.6429 25.8662 14.4297C25.9545 14.2165 26 13.988 26 13.7573C26 13.5265 25.9545 13.298 25.8662 13.0848C25.7779 12.8716 25.6485 12.6779 25.4853 12.5148C25.3222 12.3516 25.1285 12.2222 24.9153 12.1338C24.7021 12.0455 24.4736 12.0001 24.2428 12.0001C24.0121 12.0001 23.7836 12.0455 23.5704 12.1338C23.3572 12.2222 23.1635 12.3516 23.0003 12.5148L17.2428 18.2898L11.4678 12.7248C11.14 12.3988 10.6964 12.2159 10.2341 12.2159C9.77176 12.2159 9.32822 12.3988 9.00034 12.7248C8.83604 12.8903 8.7065 13.0871 8.61935 13.3035C8.5322 13.5199 8.48918 13.7515 8.49284 13.9848Z" fill="#4C5258"/>
</svg>
