<svg width="80" height="80" viewBox="0 0 80 80" fill="none" xmlns="http://www.w3.org/2000/svg">
<rect width="80" height="80" rx="10" fill="#EC2227"/>
<path d="M39.9997 60.9999C41.2883 60.9999 42.3328 59.9554 42.3328 58.6668C42.3328 57.3783 41.2883 56.3337 39.9997 56.3337C38.7112 56.3337 37.6666 57.3783 37.6666 58.6668C37.6666 59.9554 38.7112 60.9999 39.9997 60.9999Z" fill="white"/>
<path d="M60.9881 28.45C60.9251 23.2224 56.7825 19 51.6669 19C50.3173 19 49.037 19.301 47.8799 19.8162C45.5916 15.1899 40.8386 12 35.3289 12C27.5995 12 21.3338 18.2664 21.3338 26C16.179 26 12 30.179 12 35.3331C12 40.4872 16.179 44.6662 21.3331 44.6662H23.6662V40H21.3331C18.7536 40 16.6662 37.9084 16.6662 35.3331C16.6662 32.7536 18.7536 30.6662 21.3331 30.6662H26V26C26 20.855 30.1839 16.6669 35.3289 16.6669C38.8975 16.6669 42.1056 18.6675 43.6967 21.8854L45.6833 25.9097L49.7811 24.0827C50.3964 23.8048 51.0292 23.6676 51.6676 23.6676C54.2401 23.6676 56.3338 25.8642 56.3338 28.5669V33H59.8338C61.7665 33 63.3338 34.568 63.3338 36.5C63.3338 38.4348 61.7665 40 59.8338 40H56.3338V44.6669H59.8338C64.3425 44.6669 68 41.0136 68 36.5C68 32.3875 64.9466 29.017 60.9881 28.45Z" fill="white"/>
<path d="M51.6672 39.9999C51.6672 37.4337 49.5658 35.333 47.0003 35.333H33.0003C30.4341 35.333 28.3334 37.4337 28.3334 39.9999V63.333C28.3334 65.8992 30.4341 67.9999 33.0003 67.9999H47.0003C49.5658 67.9999 51.6672 65.8992 51.6672 63.333V39.9999ZM47.0003 63.333H33.0003V39.9999H47.0003V63.333Z" fill="white"/>
</svg>
