<svg width="80" height="80" viewBox="0 0 80 80" fill="none" xmlns="http://www.w3.org/2000/svg">
<rect width="80" height="80" rx="10" fill="#EC2227"/>
<path d="M60.9881 30.783C60.9244 25.5561 56.7818 21.3337 51.6669 21.3337C50.3173 21.3337 49.037 21.6347 47.8799 22.1492C45.5916 17.5236 40.8386 14.3337 35.3289 14.3337C27.5995 14.3337 21.3338 20.6001 21.3338 28.3337C16.179 28.333 12 32.512 12 37.6668C12 42.8209 16.179 46.9999 21.3331 46.9999V42.333C18.7536 42.333 16.6662 40.2414 16.6662 37.6661C16.6662 35.0866 18.7536 32.9992 21.3331 32.9992H26V28.3323C26 23.188 30.1839 18.9999 35.3289 18.9999C38.8975 18.9999 42.1056 21.0005 43.6967 24.2184L45.6833 28.2427L49.7811 26.415C50.3957 26.1364 51.0285 25.9999 51.6669 25.9999C54.2394 25.9999 56.3331 28.1965 56.3331 30.8992V35.3337H59.8331C61.7658 35.3337 63.3331 36.901 63.3331 38.8337C63.3331 40.7678 61.7658 42.3337 59.8331 42.3337H58.6669V46.9999H59.8331C64.3425 46.9999 68 43.3473 68 38.833C68 34.7205 64.9466 31.35 60.9881 30.783Z" fill="white"/>
<path d="M40 37.667C32.2664 37.667 26 43.9362 26 51.667C26 59.3978 32.2664 65.667 40 65.667C47.7315 65.667 54 59.3985 54 51.667C54 43.9355 47.7315 37.667 40 37.667ZM41.75 61.0001H38.25V57.5001H41.75V61.0001ZM41.75 54.0001H38.25V42.3332H41.75V54.0001Z" fill="white"/>
</svg>
