<svg width="80" height="80" viewBox="0 0 80 80" fill="none" xmlns="http://www.w3.org/2000/svg">
<rect width="80" height="80" rx="10" fill="#EC2227"/>
<path d="M60.9881 30.7823C60.9244 25.5554 56.7818 21.333 51.6669 21.333C50.3173 21.333 49.037 21.634 47.8799 22.1485C45.5916 17.5236 40.8386 14.333 35.3289 14.333C27.5995 14.333 21.3338 20.5994 21.3338 28.333C16.179 28.333 12 32.512 12 37.6661C12 42.8209 16.179 46.9999 21.3331 46.9999H23.6662V42.333H21.3331C18.7536 42.333 16.6662 40.2414 16.6662 37.6661C16.6662 35.0866 18.7536 32.9999 21.3331 32.9999H26V28.333C26 23.1873 30.1839 18.9999 35.3289 18.9999C38.8975 18.9999 42.1056 20.9998 43.6967 24.2177L45.6833 28.242L49.7811 26.4143C50.3957 26.1364 51.0285 25.9999 51.6669 25.9999C54.2394 25.9999 56.3331 28.1965 56.3331 30.8985V35.333H59.8331C61.7658 35.333 63.3331 36.9003 63.3331 38.833C63.3331 40.7678 61.7658 42.333 59.8331 42.333H56.3331V46.9999H59.8331C64.3425 46.9999 68 43.3473 68 38.833C68 34.7198 64.9466 31.35 60.9881 30.7823Z" fill="white"/>
<path d="M28.332 40.0001V47.8478C28.332 55.8208 33.1396 62.6563 39.9989 65.667C46.8575 62.6563 51.6658 55.8208 51.6658 47.8478V40.0001C43.8867 36.7738 35.5392 37.0062 28.332 40.0001ZM46.9989 47.8478C46.9989 52.9998 44.3102 57.7276 39.9989 60.4051C35.6876 57.7276 32.9989 52.9998 32.9989 47.8478V43.3069C35.2774 42.6594 37.6224 42.3332 40.0059 42.3332C42.3803 42.3332 44.7204 42.6594 46.9989 43.3069V47.8478Z" fill="white"/>
</svg>
