<svg width="16" height="16" viewBox="0 0 16 16" fill="none" xmlns="http://www.w3.org/2000/svg">
<g clip-path="url(#clip0)">
<path d="M9.71875 6.28125C10.0122 6.28125 10.25 6.0434 10.25 5.75C10.25 5.4566 10.0122 5.21875 9.71875 5.21875C9.42535 5.21875 9.1875 5.4566 9.1875 5.75C9.1875 6.0434 9.42535 6.28125 9.71875 6.28125Z" fill="#EC2227"/>
<path d="M12.7188 10.7812C13.0122 10.7812 13.25 10.5434 13.25 10.25C13.25 9.9566 13.0122 9.71875 12.7188 9.71875C12.4253 9.71875 12.1875 9.9566 12.1875 10.25C12.1875 10.5434 12.4253 10.7812 12.7188 10.7812Z" fill="#EC2227"/>
<path d="M15.5325 0H6.74609C6.48722 0 6.27734 0.209875 6.27734 0.46875V16H15.5325C15.7914 16 16.0013 15.7901 16.0013 15.5312V0.46875C16.0013 0.209875 15.7914 0 15.5325 0ZM10.1888 7.14159V13.25C10.1888 13.5089 9.97891 13.7188 9.72003 13.7188C9.46116 13.7188 9.25128 13.5089 9.25128 13.25V7.14159C8.67066 6.9455 8.25128 6.396 8.25128 5.75C8.25128 5.104 8.67066 4.5545 9.25128 4.35841V2.75C9.25128 2.49113 9.46116 2.28125 9.72003 2.28125C9.97891 2.28125 10.1888 2.49113 10.1888 2.75V4.35841C10.7694 4.5545 11.1888 5.104 11.1888 5.75C11.1888 6.396 10.7694 6.9455 10.1888 7.14159ZM13.1888 11.6416V13.25C13.1888 13.5089 12.9789 13.7188 12.72 13.7188C12.4612 13.7188 12.2513 13.5089 12.2513 13.25V11.6416C11.6707 11.4455 11.2513 10.896 11.2513 10.25C11.2513 9.604 11.6707 9.0545 12.2513 8.85841V2.75C12.2513 2.49113 12.4612 2.28125 12.72 2.28125C12.9789 2.28125 13.1888 2.49113 13.1888 2.75V8.85841C13.7694 9.0545 14.1888 9.604 14.1888 10.25C14.1888 10.896 13.7694 11.4455 13.1888 11.6416Z" fill="#EC2227"/>
<path d="M3.78763 5.90056V6.698C3.73553 6.71843 3.68388 6.73987 3.63266 6.76234L3.06862 6.19831C2.91103 6.04072 2.66425 6.01587 2.47844 6.1389C2.15047 6.35597 1.84269 6.60753 1.56353 6.88665C1.28406 7.16615 1.03247 7.474 0.815781 7.80159C0.692875 7.98743 0.71775 8.23409 0.875281 8.39165L1.43928 8.95565C1.41681 9.00693 1.39534 9.05859 1.37491 9.11071H0.5775C0.354687 9.11071 0.162656 9.26759 0.118188 9.4859C0.0397813 9.87083 0 10.2664 0 10.6616C0 11.0568 0.0397813 11.4524 0.118188 11.8373C0.162656 12.0556 0.354687 12.2125 0.5775 12.2125H1.37491C1.39534 12.2646 1.41681 12.3164 1.43925 12.3676L0.875375 12.9315C0.717844 13.089 0.692937 13.3357 0.815844 13.5215C1.03256 13.8492 1.28416 14.157 1.56369 14.4365C1.84309 14.7159 2.15091 14.9675 2.47859 15.1843C2.66444 15.3072 2.91112 15.2824 3.06869 15.1248L3.63259 14.5609C3.68384 14.5834 3.73553 14.6048 3.78766 14.6253V15.4226C3.78766 15.6454 3.94453 15.8374 4.16288 15.8819C4.54819 15.9604 4.94375 16.0001 5.33856 16.0001V11.8161C4.70194 11.8161 4.18403 11.2982 4.18403 10.6616C4.18403 10.025 4.70197 9.50708 5.33856 9.50708V5.32422C4.94306 5.32422 4.54784 5.36275 4.16281 5.44122C3.94447 5.48572 3.78763 5.67775 3.78763 5.90056Z" fill="#EC2227"/>
</g>
<defs>
<clipPath id="clip0">
<rect width="16" height="16" fill="white"/>
</clipPath>
</defs>
</svg>
