<svg width="143" height="36" viewBox="0 0 143 36" fill="none" xmlns="http://www.w3.org/2000/svg">
<g clip-path="url(#clip0)">
<path d="M9.39478 30.6551H5.06749L3.04619 36.0283L0.540912 35.1516L2.22059 30.6551H0V27.8555H3.24547L4.72586 23.9246H0V21.1249H5.80768L7.82899 15.7518L10.3343 16.6567L8.65459 21.1249H12.9249L14.9462 15.7518L17.4515 16.6284L15.7719 21.1249H18.2202V23.9246H14.747L13.2666 27.8555H18.2202V30.6551H12.2132L10.2204 36.0283L7.71511 35.1233L9.39478 30.6551ZM6.12084 27.8272H10.4481L11.9001 23.8963H7.57277L6.12084 27.8272ZM37.4937 33.7942C36.2411 35.1233 33.7358 36.0283 31.1451 36.0283C25.0812 36.0283 20.9247 32.0126 20.9247 25.8759C20.9247 20.22 24.5118 15.7235 31.0597 15.7235C33.6219 15.7235 35.7856 16.5436 37.0952 17.7313L35.5294 20.2765C34.3337 19.4847 33.0526 18.9474 31.0597 18.9474C27.3872 18.9474 24.5973 21.5774 24.5973 25.8759C24.5973 29.9764 27.3872 32.8044 31.4583 32.8044C33.138 32.8044 34.7892 32.2671 36.1557 31.2207L37.4937 33.7942ZM51.6144 22.7368C55.8278 22.7368 58.5608 25.5648 58.5608 29.3826C58.5608 33.172 55.8563 36.0283 51.6144 36.0283C47.401 36.0283 44.6679 33.2003 44.6679 29.3826C44.6964 25.5931 47.401 22.7368 51.6144 22.7368ZM51.6144 33.0024C53.6357 33.0024 55.0876 31.5601 55.0876 29.3826C55.0876 27.2333 53.5787 25.791 51.6144 25.791C49.6785 25.791 48.1696 27.205 48.1696 29.3826C48.1696 31.4753 49.65 33.0024 51.6144 33.0024ZM72.2544 35.6889H69.009V34.1335C68.2403 35.0668 66.9023 36 64.9379 36C62.4611 36 60.4682 34.3881 60.4682 30.7683V23.0479H63.7137V30.0896C63.7137 31.7863 64.3685 32.9741 66.1336 32.9741C67.2154 32.9741 68.2688 32.3802 68.9805 31.4187V23.0479H72.226V35.6889H72.2544ZM84.0976 34.3881C83.2435 35.293 82.0763 35.9434 80.4535 35.9434C76.8095 35.9434 74.4465 33.3983 74.4465 29.524C74.4465 25.5365 77.3219 22.7368 81.4499 22.7368C82.5887 22.7368 83.4143 22.9348 84.0976 23.359V16.0346H87.343V35.7172H84.0976V34.3881ZM84.0976 31.6167V26.5263C83.2719 26.0173 82.4464 25.7628 81.5923 25.7628C79.6564 25.7628 77.9482 27.0636 77.9482 29.3826C77.9482 31.6449 79.4286 32.8892 81.1368 32.8892C82.304 32.9175 83.3574 32.3519 84.0976 31.6167ZM91.2433 16.0346H94.745L101.521 25.2255L107.983 16.0346H111.257V35.7172H107.812V21.4925L101.549 30.2309H101.037L94.7165 21.5774V35.7172H91.2433V16.0346ZM113.136 16.0346H129.477V19.2584H123.043V35.6889H119.57V19.2584H113.136V16.0346ZM130.36 21.1532C130.36 18.2121 132.694 15.7235 136.538 15.7235C138.957 15.7235 141.007 16.5436 142.203 17.8445L140.324 20.4179C139.356 19.4847 138.388 18.9474 136.822 18.9474C135.086 18.9474 134.061 19.824 134.061 21.1249C134.061 25.1972 143.028 23.8963 143.028 30.4572C143.028 33.7659 140.125 36.0283 136.395 36.0283C133.861 36.0283 130.872 34.9254 129.904 32.9458L131.897 30.5986C133.064 32.0974 134.915 32.8327 136.452 32.8327C138.103 32.8327 139.327 32.0126 139.327 30.5137C139.327 26.5829 130.36 27.5444 130.36 21.1532ZM42.6182 16.0346H39.1165V35.7172H42.6182V16.0346ZM80.8521 19.7109C80.5959 13.4046 75.3576 8.3425 68.952 8.3425C67.4147 8.3425 65.8774 8.65357 64.4539 9.21917C61.3223 3.56324 55.3438 0 48.739 0C40.6823 0 33.8497 5.34485 31.6291 12.641H35.2447C37.3229 7.23959 42.5897 3.39356 48.739 3.39356C58.0768 3.39356 61.9771 11.3119 62.9166 13.546C64.5109 12.7258 66.3329 11.7643 68.952 11.7643C73.2793 11.7643 77.1511 15.1013 77.4358 19.7109H80.8521Z" fill="#EC2227"/>
</g>
<defs>
<clipPath id="clip0">
<rect width="143" height="36" fill="white"/>
</clipPath>
</defs>
</svg>
