<svg width="32" height="32" viewBox="0 0 32 32" fill="none" xmlns="http://www.w3.org/2000/svg">
<path d="M17.7959 14.4127C18.4461 14.4369 19.115 14.2474 19.5937 13.8152C20.0622 13.3922 20.335 12.7982 20.3502 12.1716C20.2605 10.8055 19.1153 9.73843 17.7273 9.74024L16.0131 9.74024L16.0101 23.4891C16.0101 24.3234 15.3364 25 14.5051 25C13.6737 25 13 24.3234 13 23.4891V7.40313C13 7.18059 13.1798 7 13.4016 7L17.7072 7.00018C20.5276 6.99669 22.8551 9.21504 23 12.0441C22.9904 13.5193 22.4068 14.8529 21.3682 15.8011C20.3589 16.7225 19.0183 17.1886 17.6588 17.0916L17.7959 14.4127Z" fill="white"/>
<path fill-rule="evenodd" clip-rule="evenodd" d="M17.9138 14.3598L18 17L12.4612 16.9585C11.654 16.9585 11 16.2961 11 15.4793C11 14.6624 11.654 14 12.4612 14C13.2683 14 16.1873 14.3598 17.9138 14.3598Z" fill="white"/>
<path d="M17.7978 19C18.4614 18.9993 18.9995 19.6693 19 20.4961C19.0005 21.3229 18.4632 21.994 17.7997 21.9946L12.2021 22C11.5386 22.0007 11.0005 21.3307 11 20.5039C10.9995 19.6771 11.5367 19.006 12.2003 19.0054L17.7978 19Z" fill="white"/>
<path d="M8.92297 7.06232L6.19221 7.05855L6.72422 6.53653C10.6175 2.71636 16.4839 1.67728 21.4656 3.93516C27.4324 6.63949 30.5262 13.2987 28.7443 19.6021C26.9623 25.9057 20.8399 29.9601 14.3401 29.141C7.84037 28.3219 2.91553 22.8753 2.75353 16.3269C2.73472 15.5666 2.10318 14.9656 1.34293 14.9844C0.582681 15.0032 -0.0183778 15.6347 0.0004296 16.395C0.196112 24.3049 6.14478 30.884 13.9958 31.8733C21.8468 32.8627 29.242 27.9653 31.3944 20.3513C33.5468 12.7372 29.8098 4.69342 22.6025 1.42685C16.755 -1.22342 9.87886 -0.118817 5.16691 4.21748L4.65508 4.6885V2.27327C4.65508 1.51631 4.04144 0.902672 3.28447 0.902672C2.5275 0.902672 1.91386 1.51631 1.91386 2.27327V8.42656C1.91386 9.18305 2.52674 9.79663 3.28314 9.79737L8.92027 9.80352C9.67723 9.80427 10.2915 9.19123 10.2922 8.43427C10.293 7.67731 9.67994 7.06307 8.92297 7.06232Z" fill="white"/>
</svg>
