<svg width="20" height="20" viewBox="0 0 20 20" fill="none" xmlns="http://www.w3.org/2000/svg">
<g clip-path="url(#clip0)">
<path d="M9.01582 14.0874C7.46535 13.9257 6.06738 13.5438 4.87049 12.6077C4.72198 12.4912 4.56865 12.379 4.43313 12.2489C3.90925 11.7457 3.85647 11.1695 4.271 10.5757C4.62562 10.0675 5.22093 9.93156 5.83969 10.2233C5.9595 10.2799 6.07366 10.3505 6.183 10.4263C8.4136 11.959 11.4779 12.0013 13.7169 10.4952C13.9387 10.3251 14.1758 10.1865 14.4506 10.1157C14.985 9.97848 15.4833 10.1747 15.77 10.6423C16.0977 11.1762 16.0935 11.6974 15.6898 12.1119C15.0706 12.7474 14.326 13.2072 13.4986 13.5281C12.7162 13.8314 11.8593 13.9841 11.0112 14.0855C11.1392 14.2248 11.1995 14.2933 11.2795 14.3737C12.4312 15.5308 13.5878 16.6831 14.7357 17.8437C15.1268 18.2392 15.2085 18.7295 14.9931 19.1895C14.7577 19.6922 14.2307 20.023 13.7139 19.9876C13.3865 19.965 13.1312 19.802 12.9043 19.5735C12.0353 18.699 11.1499 17.8406 10.2984 16.9495C10.0506 16.6904 9.93139 16.7394 9.71271 16.9644C8.8384 17.8644 7.94985 18.7507 7.05606 19.6319C6.65472 20.0276 6.17714 20.0988 5.7117 19.8728C5.21695 19.633 4.90212 19.1279 4.92642 18.6204C4.94317 18.2771 5.112 18.0148 5.34765 17.7796C6.48736 16.6416 7.62392 15.5006 8.7609 14.3607C8.8361 14.2849 8.90627 14.2044 9.01582 14.0874Z" fill="white"/>
<path d="M9.96037 10.1233C7.19437 10.1139 4.92628 7.82084 4.94241 5.05045C4.95833 2.24947 7.22789 -0.00773033 10.0211 1.98985e-05C12.82 0.00756066 15.0665 2.29723 15.0525 5.12732C15.0382 7.89206 12.7544 10.1329 9.96037 10.1233ZM12.4742 5.05715C12.4693 3.68159 11.3738 2.5865 10.001 2.58525C8.61664 2.58378 7.51129 3.69877 7.52198 5.0869C7.53224 6.45722 8.63717 7.54456 10.0138 7.53953C11.3862 7.53471 12.4788 6.4325 12.4742 5.05715Z" fill="white"/>
</g>
<defs>
<clipPath id="clip0">
<rect width="20" height="20" fill="white"/>
</clipPath>
</defs>
</svg>
